# MagicaVoxel @ Ephtracy

# group
o 

# material
mtllib CASA DO BURI-16.mtl
usemtl palette

# normals
vn -1 0 0
vn 1 0 0
vn 0 0 1
vn 0 0 -1
vn 0 -1 0
vn 0 1 0

# texcoords
vt 0.345703 0.5
vt 0.841797 0.5

# verts
v -2.8 7.8 8.1
v -2.8 7.8 7.9
v -2.8 7.8 7.8
v -2.8 7.8 7.6
v -2.8 7.8 7.5
v -2.8 7.8 7.3
v -2.8 7.8 7.2
v -2.8 7.8 7
v -2.8 7.8 6.9
v -2.8 7.8 6.7
v -2.8 7.9 8
v -2.8 7.9 7.9
v -2.8 7.9 7.8
v -2.8 7.9 7.6
v -2.8 7.9 7.5
v -2.8 7.9 7.3
v -2.8 7.9 7.2
v -2.8 7.9 7
v -2.8 7.9 6.9
v -2.8 7.9 6.7
v -2.8 8.1 8.1
v -2.8 8.1 8
v -2.7 7.6 8.1
v -2.7 7.6 6.7
v -2.7 7.8 8.1
v -2.7 7.8 7.9
v -2.7 7.8 7.8
v -2.7 7.8 7.6
v -2.7 7.8 7.5
v -2.7 7.8 7.3
v -2.7 7.8 7.2
v -2.7 7.8 7
v -2.7 7.8 6.9
v -2.7 7.8 6.7
v 0.2 7.9 7.9
v 0.2 7.9 7.8
v 0.2 7.9 7.6
v 0.2 7.9 7.5
v 0.2 7.9 7.3
v 0.2 7.9 7.2
v 0.2 7.9 7
v 0.2 7.9 6.9
v 0.2 8 7.9
v 0.2 8 6.9
v 0.3 7.5 7.8
v 0.3 7.5 7
v 0.3 7.8 7.8
v 0.3 7.8 7.6
v 0.3 7.8 7.5
v 0.3 7.8 7.3
v 0.3 7.8 7.2
v 0.3 7.8 7
v 0.3 7.9 7.6
v 0.3 7.9 7.5
v 0.3 7.9 7.3
v 0.3 7.9 7.2
v 0.7 7.4 7.5
v 0.7 7.4 7.3
v 0.7 7.5 7.5
v 0.7 7.5 7.3
v 0.8 7.4 7.6
v 0.8 7.4 7.5
v 0.8 7.4 7.3
v 0.8 7.4 7.2
v 0.8 7.5 7.6
v 0.8 7.5 7.5
v 0.8 7.5 7.3
v 0.8 7.5 7.2
v 1 7.4 7.5
v 1 7.4 7.3
v 1 7.6 7.5
v 1 7.6 7.3
v 1.4 7.6 7.7
v 1.4 7.6 7.1
v 1.4 7.9 7.7
v 1.4 7.9 7.1
v 1.5 7.9 7.8
v 1.5 7.9 7
v 1.5 8 7.8
v 1.5 8 7
v 1.7 7.6 8
v 1.7 7.6 6.7
v 1.7 7.8 8
v 1.7 7.8 7.9
v 1.7 7.8 7.8
v 1.7 7.8 7.6
v 1.7 7.8 7.5
v 1.7 7.8 7.3
v 1.7 7.8 7.2
v 1.7 7.8 7
v 1.7 7.8 6.9
v 1.7 7.8 6.7
v -2.5 7.6 8
v -2.5 7.6 6.7
v -2.5 7.8 8
v -2.5 7.8 7.9
v -2.5 7.8 7.8
v -2.5 7.8 7.6
v -2.5 7.8 7.5
v -2.5 7.8 7.3
v -2.5 7.8 7.2
v -2.5 7.8 7
v -2.5 7.8 6.9
v -2.5 7.8 6.7
v 0.3 7.9 7.8
v 0.3 7.9 7
v 0.3 8 7.8
v 0.3 8 7
v 0.4 7.6 7.7
v 0.4 7.6 7.1
v 0.4 7.9 7.7
v 0.4 7.9 7.1
v 0.8 7.4 7.5
v 0.8 7.4 7.3
v 0.8 7.6 7.5
v 0.8 7.6 7.3
v 1 7.4 7.6
v 1 7.4 7.5
v 1 7.4 7.3
v 1 7.4 7.2
v 1 7.5 7.6
v 1 7.5 7.5
v 1 7.5 7.3
v 1 7.5 7.2
v 1.1 7.4 7.5
v 1.1 7.4 7.3
v 1.1 7.5 7.5
v 1.1 7.5 7.3
v 1.5 7.5 7.8
v 1.5 7.5 7
v 1.5 7.8 7.8
v 1.5 7.8 7.6
v 1.5 7.8 7.5
v 1.5 7.8 7.3
v 1.5 7.8 7.2
v 1.5 7.8 7
v 1.5 7.9 7.6
v 1.5 7.9 7.5
v 1.5 7.9 7.3
v 1.5 7.9 7.2
v 1.6 7.9 7.9
v 1.6 7.9 7.8
v 1.6 7.9 7.6
v 1.6 7.9 7.5
v 1.6 7.9 7.3
v 1.6 7.9 7.2
v 1.6 7.9 7
v 1.6 7.9 6.9
v 1.6 8 7.9
v 1.6 8 6.9
v 1.9 7.6 8.1
v 1.9 7.6 6.7
v 1.9 7.8 8.1
v 1.9 7.8 7.9
v 1.9 7.8 7.8
v 1.9 7.8 7.6
v 1.9 7.8 7.5
v 1.9 7.8 7.3
v 1.9 7.8 7.2
v 1.9 7.8 7
v 1.9 7.8 6.9
v 1.9 7.8 6.7
v 2 7.8 8.1
v 2 7.8 7.9
v 2 7.8 7.8
v 2 7.8 7.6
v 2 7.8 7.5
v 2 7.8 7.3
v 2 7.8 7.2
v 2 7.8 7
v 2 7.8 6.9
v 2 7.8 6.7
v 2 7.9 8
v 2 7.9 7.9
v 2 7.9 7.8
v 2 7.9 7.6
v 2 7.9 7.5
v 2 7.9 7.3
v 2 7.9 7.2
v 2 7.9 7
v 2 7.9 6.9
v 2 7.9 6.7
v 2 8.1 8.1
v 2 8.1 8
v -2.8 7.8 8.1
v -2.8 8.1 8.1
v -2.7 7.6 8.1
v -2.7 7.8 8.1
v 1.9 7.6 8.1
v 1.9 7.8 8.1
v 2 7.8 8.1
v 2 8.1 8.1
v 0.2 7.9 7.9
v 0.2 8 7.9
v 1.6 7.9 7.9
v 1.6 8 7.9
v -2.8 7.8 7.8
v -2.8 7.9 7.8
v -2.7 7.8 7.8
v -2.5 7.8 7.8
v 0.2 7.9 7.8
v 0.3 7.5 7.8
v 0.3 7.8 7.8
v 0.3 7.9 7.8
v 1.5 7.5 7.8
v 1.5 7.8 7.8
v 1.5 7.9 7.8
v 1.6 7.9 7.8
v 1.7 7.8 7.8
v 1.9 7.8 7.8
v 2 7.8 7.8
v 2 7.9 7.8
v 0.8 7.4 7.6
v 0.8 7.5 7.6
v 1 7.4 7.6
v 1 7.5 7.6
v -2.8 7.8 7.5
v -2.8 7.9 7.5
v -2.7 7.8 7.5
v -2.5 7.8 7.5
v 0.2 7.9 7.5
v 0.3 7.8 7.5
v 0.3 7.9 7.5
v 0.7 7.4 7.5
v 0.7 7.5 7.5
v 0.8 7.4 7.5
v 0.8 7.5 7.5
v 1 7.4 7.5
v 1 7.5 7.5
v 1.1 7.4 7.5
v 1.1 7.5 7.5
v 1.5 7.8 7.5
v 1.5 7.9 7.5
v 1.6 7.9 7.5
v 1.7 7.8 7.5
v 1.9 7.8 7.5
v 2 7.8 7.5
v 2 7.9 7.5
v 0.8 7.4 7.3
v 0.8 7.6 7.3
v 1 7.4 7.3
v 1 7.6 7.3
v -2.8 7.8 7.2
v -2.8 7.9 7.2
v -2.7 7.8 7.2
v -2.5 7.8 7.2
v 0.2 7.9 7.2
v 0.3 7.8 7.2
v 0.3 7.9 7.2
v 1.5 7.8 7.2
v 1.5 7.9 7.2
v 1.6 7.9 7.2
v 1.7 7.8 7.2
v 1.9 7.8 7.2
v 2 7.8 7.2
v 2 7.9 7.2
v 0.4 7.6 7.1
v 0.4 7.9 7.1
v 1.4 7.6 7.1
v 1.4 7.9 7.1
v 0.3 7.9 7
v 0.3 8 7
v 1.5 7.9 7
v 1.5 8 7
v -2.8 7.8 6.9
v -2.8 7.9 6.9
v -2.7 7.8 6.9
v -2.5 7.8 6.9
v 0.2 7.9 6.9
v 1.6 7.9 6.9
v 1.7 7.8 6.9
v 1.9 7.8 6.9
v 2 7.8 6.9
v 2 7.9 6.9
v -2.8 7.9 8
v -2.8 8.1 8
v -2.5 7.6 8
v -2.5 7.8 8
v 1.7 7.6 8
v 1.7 7.8 8
v 2 7.9 8
v 2 8.1 8
v -2.8 7.8 7.9
v -2.8 7.9 7.9
v -2.7 7.8 7.9
v -2.5 7.8 7.9
v 0.2 7.9 7.9
v 1.6 7.9 7.9
v 1.7 7.8 7.9
v 1.9 7.8 7.9
v 2 7.8 7.9
v 2 7.9 7.9
v 0.3 7.9 7.8
v 0.3 8 7.8
v 1.5 7.9 7.8
v 1.5 8 7.8
v 0.4 7.6 7.7
v 0.4 7.9 7.7
v 1.4 7.6 7.7
v 1.4 7.9 7.7
v -2.8 7.8 7.6
v -2.8 7.9 7.6
v -2.7 7.8 7.6
v -2.5 7.8 7.6
v 0.2 7.9 7.6
v 0.3 7.8 7.6
v 0.3 7.9 7.6
v 1.5 7.8 7.6
v 1.5 7.9 7.6
v 1.6 7.9 7.6
v 1.7 7.8 7.6
v 1.9 7.8 7.6
v 2 7.8 7.6
v 2 7.9 7.6
v 0.8 7.4 7.5
v 0.8 7.6 7.5
v 1 7.4 7.5
v 1 7.6 7.5
v -2.8 7.8 7.3
v -2.8 7.9 7.3
v -2.7 7.8 7.3
v -2.5 7.8 7.3
v 0.2 7.9 7.3
v 0.3 7.8 7.3
v 0.3 7.9 7.3
v 0.7 7.4 7.3
v 0.7 7.5 7.3
v 0.8 7.4 7.3
v 0.8 7.5 7.3
v 1 7.4 7.3
v 1 7.5 7.3
v 1.1 7.4 7.3
v 1.1 7.5 7.3
v 1.5 7.8 7.3
v 1.5 7.9 7.3
v 1.6 7.9 7.3
v 1.7 7.8 7.3
v 1.9 7.8 7.3
v 2 7.8 7.3
v 2 7.9 7.3
v 0.8 7.4 7.2
v 0.8 7.5 7.2
v 1 7.4 7.2
v 1 7.5 7.2
v -2.8 7.8 7
v -2.8 7.9 7
v -2.7 7.8 7
v -2.5 7.8 7
v 0.2 7.9 7
v 0.3 7.5 7
v 0.3 7.8 7
v 0.3 7.9 7
v 1.5 7.5 7
v 1.5 7.8 7
v 1.5 7.9 7
v 1.6 7.9 7
v 1.7 7.8 7
v 1.9 7.8 7
v 2 7.8 7
v 2 7.9 7
v 0.2 7.9 6.9
v 0.2 8 6.9
v 1.6 7.9 6.9
v 1.6 8 6.9
v -2.8 7.8 6.7
v -2.8 7.9 6.7
v -2.7 7.6 6.7
v -2.7 7.8 6.7
v -2.5 7.6 6.7
v -2.5 7.8 6.7
v 1.7 7.6 6.7
v 1.7 7.8 6.7
v 1.9 7.6 6.7
v 1.9 7.8 6.7
v 2 7.8 6.7
v 2 7.9 6.7
v 0.8 7.4 7.6
v 1 7.4 7.6
v 0.7 7.4 7.5
v 0.8 7.4 7.5
v 1 7.4 7.5
v 1.1 7.4 7.5
v 0.7 7.4 7.3
v 0.8 7.4 7.3
v 1 7.4 7.3
v 1.1 7.4 7.3
v 0.8 7.4 7.2
v 1 7.4 7.2
v 0.3 7.5 7.8
v 1.5 7.5 7.8
v 0.8 7.5 7.6
v 1 7.5 7.6
v 0.7 7.5 7.5
v 0.8 7.5 7.5
v 1 7.5 7.5
v 1.1 7.5 7.5
v 0.7 7.5 7.3
v 0.8 7.5 7.3
v 1 7.5 7.3
v 1.1 7.5 7.3
v 0.8 7.5 7.2
v 1 7.5 7.2
v 0.3 7.5 7
v 1.5 7.5 7
v -2.7 7.6 8.1
v 1.9 7.6 8.1
v -2.5 7.6 8
v 1.7 7.6 8
v -2.7 7.6 6.7
v -2.5 7.6 6.7
v 1.7 7.6 6.7
v 1.9 7.6 6.7
v -2.8 7.8 8.1
v -2.7 7.8 8.1
v 1.9 7.8 8.1
v 2 7.8 8.1
v -2.5 7.8 8
v 1.7 7.8 8
v -2.8 7.8 7.9
v -2.7 7.8 7.9
v -2.5 7.8 7.9
v 1.7 7.8 7.9
v 1.9 7.8 7.9
v 2 7.8 7.9
v -2.8 7.8 7.8
v -2.7 7.8 7.8
v -2.5 7.8 7.8
v 0.3 7.8 7.8
v 1.5 7.8 7.8
v 1.7 7.8 7.8
v 1.9 7.8 7.8
v 2 7.8 7.8
v -2.8 7.8 7.6
v -2.7 7.8 7.6
v -2.5 7.8 7.6
v 0.3 7.8 7.6
v 1.5 7.8 7.6
v 1.7 7.8 7.6
v 1.9 7.8 7.6
v 2 7.8 7.6
v -2.8 7.8 7.5
v -2.7 7.8 7.5
v -2.5 7.8 7.5
v 0.3 7.8 7.5
v 1.5 7.8 7.5
v 1.7 7.8 7.5
v 1.9 7.8 7.5
v 2 7.8 7.5
v -2.8 7.8 7.3
v -2.7 7.8 7.3
v -2.5 7.8 7.3
v 0.3 7.8 7.3
v 1.5 7.8 7.3
v 1.7 7.8 7.3
v 1.9 7.8 7.3
v 2 7.8 7.3
v -2.8 7.8 7.2
v -2.7 7.8 7.2
v -2.5 7.8 7.2
v 0.3 7.8 7.2
v 1.5 7.8 7.2
v 1.7 7.8 7.2
v 1.9 7.8 7.2
v 2 7.8 7.2
v -2.8 7.8 7
v -2.7 7.8 7
v -2.5 7.8 7
v 0.3 7.8 7
v 1.5 7.8 7
v 1.7 7.8 7
v 1.9 7.8 7
v 2 7.8 7
v -2.8 7.8 6.9
v -2.7 7.8 6.9
v -2.5 7.8 6.9
v 1.7 7.8 6.9
v 1.9 7.8 6.9
v 2 7.8 6.9
v -2.8 7.8 6.7
v -2.7 7.8 6.7
v -2.5 7.8 6.7
v 1.7 7.8 6.7
v 1.9 7.8 6.7
v 2 7.8 6.7
v 0.2 7.9 7.9
v 1.6 7.9 7.9
v 0.2 7.9 7.8
v 0.3 7.9 7.8
v 1.5 7.9 7.8
v 1.6 7.9 7.8
v 0.2 7.9 7.6
v 0.3 7.9 7.6
v 1.5 7.9 7.6
v 1.6 7.9 7.6
v 0.2 7.9 7.5
v 0.3 7.9 7.5
v 1.5 7.9 7.5
v 1.6 7.9 7.5
v 0.2 7.9 7.3
v 0.3 7.9 7.3
v 1.5 7.9 7.3
v 1.6 7.9 7.3
v 0.2 7.9 7.2
v 0.3 7.9 7.2
v 1.5 7.9 7.2
v 1.6 7.9 7.2
v 0.2 7.9 7
v 0.3 7.9 7
v 1.5 7.9 7
v 1.6 7.9 7
v 0.2 7.9 6.9
v 1.6 7.9 6.9
v 0.4 7.6 7.7
v 1.4 7.6 7.7
v 0.8 7.6 7.5
v 1 7.6 7.5
v 0.8 7.6 7.3
v 1 7.6 7.3
v 0.4 7.6 7.1
v 1.4 7.6 7.1
v -2.7 7.8 7.9
v -2.5 7.8 7.9
v 1.7 7.8 7.9
v 1.9 7.8 7.9
v -2.7 7.8 7.8
v -2.5 7.8 7.8
v 1.7 7.8 7.8
v 1.9 7.8 7.8
v -2.7 7.8 7.6
v -2.5 7.8 7.6
v 1.7 7.8 7.6
v 1.9 7.8 7.6
v -2.7 7.8 7.5
v -2.5 7.8 7.5
v 1.7 7.8 7.5
v 1.9 7.8 7.5
v -2.7 7.8 7.3
v -2.5 7.8 7.3
v 1.7 7.8 7.3
v 1.9 7.8 7.3
v -2.7 7.8 7.2
v -2.5 7.8 7.2
v 1.7 7.8 7.2
v 1.9 7.8 7.2
v -2.7 7.8 7
v -2.5 7.8 7
v 1.7 7.8 7
v 1.9 7.8 7
v -2.7 7.8 6.9
v -2.5 7.8 6.9
v 1.7 7.8 6.9
v 1.9 7.8 6.9
v -2.8 7.9 8
v 2 7.9 8
v -2.8 7.9 7.9
v 0.2 7.9 7.9
v 1.6 7.9 7.9
v 2 7.9 7.9
v -2.8 7.9 7.8
v 0.2 7.9 7.8
v 0.3 7.9 7.8
v 1.5 7.9 7.8
v 1.6 7.9 7.8
v 2 7.9 7.8
v 0.4 7.9 7.7
v 1.4 7.9 7.7
v -2.8 7.9 7.6
v 0.2 7.9 7.6
v 1.6 7.9 7.6
v 2 7.9 7.6
v -2.8 7.9 7.5
v 0.2 7.9 7.5
v 1.6 7.9 7.5
v 2 7.9 7.5
v -2.8 7.9 7.3
v 0.2 7.9 7.3
v 1.6 7.9 7.3
v 2 7.9 7.3
v -2.8 7.9 7.2
v 0.2 7.9 7.2
v 1.6 7.9 7.2
v 2 7.9 7.2
v 0.4 7.9 7.1
v 1.4 7.9 7.1
v -2.8 7.9 7
v 0.2 7.9 7
v 0.3 7.9 7
v 1.5 7.9 7
v 1.6 7.9 7
v 2 7.9 7
v -2.8 7.9 6.9
v 0.2 7.9 6.9
v 1.6 7.9 6.9
v 2 7.9 6.9
v -2.8 7.9 6.7
v 2 7.9 6.7
v 0.2 8 7.9
v 1.6 8 7.9
v 0.3 8 7.8
v 1.5 8 7.8
v 0.3 8 7
v 1.5 8 7
v 0.2 8 6.9
v 1.6 8 6.9
v -2.8 8.1 8.1
v 2 8.1 8.1
v -2.8 8.1 8
v 2 8.1 8

# faces
f 11/1/1 2/1/1 1/1/1
f 12/1/1 2/1/1 11/1/1
f 13/1/1 4/1/1 3/1/1
f 14/1/1 4/1/1 13/1/1
f 15/1/1 6/1/1 5/1/1
f 16/1/1 6/1/1 15/1/1
f 17/1/1 8/1/1 7/1/1
f 18/1/1 8/1/1 17/1/1
f 19/1/1 10/1/1 9/1/1
f 20/1/1 10/1/1 19/1/1
f 21/1/1 11/1/1 1/1/1
f 22/1/1 11/1/1 21/1/1
f 25/1/1 24/1/1 23/1/1
f 26/1/1 24/1/1 25/1/1
f 27/1/1 24/1/1 26/1/1
f 28/1/1 24/1/1 27/1/1
f 29/1/1 24/1/1 28/1/1
f 30/1/1 24/1/1 29/1/1
f 31/1/1 24/1/1 30/1/1
f 32/1/1 24/1/1 31/1/1
f 33/1/1 24/1/1 32/1/1
f 34/1/1 24/1/1 33/1/1
f 43/2/1 36/2/1 35/2/1
f 43/2/1 42/2/1 41/2/1
f 43/2/1 41/2/1 40/2/1
f 43/2/1 40/2/1 39/2/1
f 43/2/1 39/2/1 38/2/1
f 43/2/1 38/2/1 37/2/1
f 43/2/1 37/2/1 36/2/1
f 44/2/1 42/2/1 43/2/1
f 47/2/1 46/2/1 45/2/1
f 48/2/1 46/2/1 47/2/1
f 49/2/1 46/2/1 48/2/1
f 50/2/1 46/2/1 49/2/1
f 51/2/1 46/2/1 50/2/1
f 52/2/1 46/2/1 51/2/1
f 53/2/1 49/2/1 48/2/1
f 54/2/1 49/2/1 53/2/1
f 55/2/1 51/2/1 50/2/1
f 56/2/1 51/2/1 55/2/1
f 59/2/1 58/2/1 57/2/1
f 60/2/1 58/2/1 59/2/1
f 65/2/1 62/2/1 61/2/1
f 66/2/1 62/2/1 65/2/1
f 67/2/1 64/2/1 63/2/1
f 68/2/1 64/2/1 67/2/1
f 71/2/1 70/2/1 69/2/1
f 72/2/1 70/2/1 71/2/1
f 75/2/1 74/2/1 73/2/1
f 76/2/1 74/2/1 75/2/1
f 79/2/1 78/2/1 77/2/1
f 80/2/1 78/2/1 79/2/1
f 83/1/1 82/1/1 81/1/1
f 84/1/1 82/1/1 83/1/1
f 85/1/1 82/1/1 84/1/1
f 86/1/1 82/1/1 85/1/1
f 87/1/1 82/1/1 86/1/1
f 88/1/1 82/1/1 87/1/1
f 89/1/1 82/1/1 88/1/1
f 90/1/1 82/1/1 89/1/1
f 91/1/1 82/1/1 90/1/1
f 92/1/1 82/1/1 91/1/1
f 93/1/2 94/1/2 95/1/2
f 95/1/2 94/1/2 96/1/2
f 96/1/2 94/1/2 97/1/2
f 97/1/2 94/1/2 98/1/2
f 98/1/2 94/1/2 99/1/2
f 99/1/2 94/1/2 100/1/2
f 100/1/2 94/1/2 101/1/2
f 101/1/2 94/1/2 102/1/2
f 102/1/2 94/1/2 103/1/2
f 103/1/2 94/1/2 104/1/2
f 105/2/2 106/2/2 107/2/2
f 107/2/2 106/2/2 108/2/2
f 109/2/2 110/2/2 111/2/2
f 111/2/2 110/2/2 112/2/2
f 113/2/2 114/2/2 115/2/2
f 115/2/2 114/2/2 116/2/2
f 117/2/2 118/2/2 121/2/2
f 121/2/2 118/2/2 122/2/2
f 119/2/2 120/2/2 123/2/2
f 123/2/2 120/2/2 124/2/2
f 125/2/2 126/2/2 127/2/2
f 127/2/2 126/2/2 128/2/2
f 129/2/2 130/2/2 131/2/2
f 131/2/2 130/2/2 132/2/2
f 132/2/2 130/2/2 133/2/2
f 133/2/2 130/2/2 134/2/2
f 134/2/2 130/2/2 135/2/2
f 135/2/2 130/2/2 136/2/2
f 132/2/2 133/2/2 137/2/2
f 137/2/2 133/2/2 138/2/2
f 134/2/2 135/2/2 139/2/2
f 139/2/2 135/2/2 140/2/2
f 141/2/2 142/2/2 149/2/2
f 147/2/2 148/2/2 149/2/2
f 146/2/2 147/2/2 149/2/2
f 145/2/2 146/2/2 149/2/2
f 144/2/2 145/2/2 149/2/2
f 143/2/2 144/2/2 149/2/2
f 142/2/2 143/2/2 149/2/2
f 149/2/2 148/2/2 150/2/2
f 151/1/2 152/1/2 153/1/2
f 153/1/2 152/1/2 154/1/2
f 154/1/2 152/1/2 155/1/2
f 155/1/2 152/1/2 156/1/2
f 156/1/2 152/1/2 157/1/2
f 157/1/2 152/1/2 158/1/2
f 158/1/2 152/1/2 159/1/2
f 159/1/2 152/1/2 160/1/2
f 160/1/2 152/1/2 161/1/2
f 161/1/2 152/1/2 162/1/2
f 163/1/2 164/1/2 173/1/2
f 173/1/2 164/1/2 174/1/2
f 165/1/2 166/1/2 175/1/2
f 175/1/2 166/1/2 176/1/2
f 167/1/2 168/1/2 177/1/2
f 177/1/2 168/1/2 178/1/2
f 169/1/2 170/1/2 179/1/2
f 179/1/2 170/1/2 180/1/2
f 171/1/2 172/1/2 181/1/2
f 181/1/2 172/1/2 182/1/2
f 163/1/2 173/1/2 183/1/2
f 183/1/2 173/1/2 184/1/2
f 188/1/3 186/1/3 185/1/3
f 189/1/3 188/1/3 187/1/3
f 190/1/3 186/1/3 188/1/3
f 190/1/3 188/1/3 189/1/3
f 191/1/3 186/1/3 190/1/3
f 192/1/3 186/1/3 191/1/3
f 195/2/3 194/2/3 193/2/3
f 196/2/3 194/2/3 195/2/3
f 199/1/3 198/1/3 197/1/3
f 200/1/3 198/1/3 199/1/3
f 201/1/3 198/1/3 200/1/3
f 203/1/3 201/1/3 200/1/3
f 204/1/3 201/1/3 203/1/3
f 205/2/3 203/2/3 202/2/3
f 205/2/3 204/2/3 203/2/3
f 206/2/3 204/2/3 205/2/3
f 207/2/3 204/2/3 206/2/3
f 208/1/3 207/1/3 206/1/3
f 209/1/3 208/1/3 206/1/3
f 210/1/3 208/1/3 209/1/3
f 211/1/3 208/1/3 210/1/3
f 212/1/3 208/1/3 211/1/3
f 215/2/3 214/2/3 213/2/3
f 216/2/3 214/2/3 215/2/3
f 219/1/3 218/1/3 217/1/3
f 220/1/3 218/1/3 219/1/3
f 221/1/3 218/1/3 220/1/3
f 222/1/3 221/1/3 220/1/3
f 223/1/3 221/1/3 222/1/3
f 226/2/3 225/2/3 224/2/3
f 227/2/3 225/2/3 226/2/3
f 230/2/3 229/2/3 228/2/3
f 231/2/3 229/2/3 230/2/3
f 234/1/3 233/1/3 232/1/3
f 235/1/3 234/1/3 232/1/3
f 236/1/3 234/1/3 235/1/3
f 237/1/3 234/1/3 236/1/3
f 238/1/3 234/1/3 237/1/3
f 241/2/3 240/2/3 239/2/3
f 242/2/3 240/2/3 241/2/3
f 245/1/3 244/1/3 243/1/3
f 246/1/3 244/1/3 245/1/3
f 247/1/3 244/1/3 246/1/3
f 248/1/3 247/1/3 246/1/3
f 249/1/3 247/1/3 248/1/3
f 252/1/3 251/1/3 250/1/3
f 253/1/3 252/1/3 250/1/3
f 254/1/3 252/1/3 253/1/3
f 255/1/3 252/1/3 254/1/3
f 256/1/3 252/1/3 255/1/3
f 259/2/3 258/2/3 257/2/3
f 260/2/3 258/2/3 259/2/3
f 263/2/3 262/2/3 261/2/3
f 264/2/3 262/2/3 263/2/3
f 267/1/3 266/1/3 265/1/3
f 268/1/3 266/1/3 267/1/3
f 269/1/3 266/1/3 268/1/3
f 270/1/3 269/1/3 268/1/3
f 271/1/3 270/1/3 268/1/3
f 272/1/3 270/1/3 271/1/3
f 273/1/3 270/1/3 272/1/3
f 274/1/3 270/1/3 273/1/3
f 277/1/4 278/1/4 279/1/4
f 279/1/4 278/1/4 280/1/4
f 275/1/4 276/1/4 281/1/4
f 281/1/4 276/1/4 282/1/4
f 283/1/4 284/1/4 285/1/4
f 285/1/4 284/1/4 286/1/4
f 286/1/4 284/1/4 287/1/4
f 286/1/4 287/1/4 288/1/4
f 286/1/4 288/1/4 289/1/4
f 289/1/4 288/1/4 290/1/4
f 290/1/4 288/1/4 291/1/4
f 291/1/4 288/1/4 292/1/4
f 293/2/4 294/2/4 295/2/4
f 295/2/4 294/2/4 296/2/4
f 297/2/4 298/2/4 299/2/4
f 299/2/4 298/2/4 300/2/4
f 301/1/4 302/1/4 303/1/4
f 303/1/4 302/1/4 304/1/4
f 304/1/4 302/1/4 305/1/4
f 304/1/4 305/1/4 306/1/4
f 306/1/4 305/1/4 307/1/4
f 308/1/4 309/1/4 310/1/4
f 308/1/4 310/1/4 311/1/4
f 311/1/4 310/1/4 312/1/4
f 312/1/4 310/1/4 313/1/4
f 313/1/4 310/1/4 314/1/4
f 315/2/4 316/2/4 317/2/4
f 317/2/4 316/2/4 318/2/4
f 319/1/4 320/1/4 321/1/4
f 321/1/4 320/1/4 322/1/4
f 322/1/4 320/1/4 323/1/4
f 322/1/4 323/1/4 324/1/4
f 324/1/4 323/1/4 325/1/4
f 326/2/4 327/2/4 328/2/4
f 328/2/4 327/2/4 329/2/4
f 330/2/4 331/2/4 332/2/4
f 332/2/4 331/2/4 333/2/4
f 334/1/4 335/1/4 336/1/4
f 334/1/4 336/1/4 337/1/4
f 337/1/4 336/1/4 338/1/4
f 338/1/4 336/1/4 339/1/4
f 339/1/4 336/1/4 340/1/4
f 341/2/4 342/2/4 343/2/4
f 343/2/4 342/2/4 344/2/4
f 345/1/4 346/1/4 347/1/4
f 347/1/4 346/1/4 348/1/4
f 348/1/4 346/1/4 349/1/4
f 348/1/4 349/1/4 351/1/4
f 351/1/4 349/1/4 352/1/4
f 350/2/4 351/2/4 353/2/4
f 351/2/4 352/2/4 353/2/4
f 353/2/4 352/2/4 354/2/4
f 354/2/4 352/2/4 355/2/4
f 354/1/4 355/1/4 356/1/4
f 354/1/4 356/1/4 357/1/4
f 357/1/4 356/1/4 358/1/4
f 358/1/4 356/1/4 359/1/4
f 359/1/4 356/1/4 360/1/4
f 361/2/4 362/2/4 363/2/4
f 363/2/4 362/2/4 364/2/4
f 365/1/4 366/1/4 368/1/4
f 367/1/4 368/1/4 369/1/4
f 368/1/4 366/1/4 370/1/4
f 369/1/4 368/1/4 370/1/4
f 370/1/4 366/1/4 372/1/4
f 371/1/4 372/1/4 373/1/4
f 372/1/4 366/1/4 374/1/4
f 373/1/4 372/1/4 374/1/4
f 374/1/4 366/1/4 375/1/4
f 375/1/4 366/1/4 376/1/4
f 380/2/5 378/2/5 377/2/5
f 381/2/5 378/2/5 380/2/5
f 383/2/5 380/2/5 379/2/5
f 384/2/5 380/2/5 383/2/5
f 385/2/5 382/2/5 381/2/5
f 386/2/5 382/2/5 385/2/5
f 387/2/5 385/2/5 384/2/5
f 388/2/5 385/2/5 387/2/5
f 391/2/5 390/2/5 389/2/5
f 392/2/5 390/2/5 391/2/5
f 393/2/5 391/2/5 389/2/5
f 394/2/5 391/2/5 393/2/5
f 395/2/5 390/2/5 392/2/5
f 396/2/5 390/2/5 395/2/5
f 397/2/5 393/2/5 389/2/5
f 400/2/5 390/2/5 396/2/5
f 401/2/5 398/2/5 397/2/5
f 402/2/5 400/2/5 399/2/5
f 403/2/5 401/2/5 397/2/5
f 403/2/5 402/2/5 401/2/5
f 403/2/5 397/2/5 389/2/5
f 404/2/5 400/2/5 402/2/5
f 404/2/5 402/2/5 403/2/5
f 404/2/5 390/2/5 400/2/5
f 407/1/5 406/1/5 405/1/5
f 408/1/5 406/1/5 407/1/5
f 409/1/5 407/1/5 405/1/5
f 410/1/5 407/1/5 409/1/5
f 411/1/5 406/1/5 408/1/5
f 412/1/5 406/1/5 411/1/5
f 419/1/5 414/1/5 413/1/5
f 420/1/5 414/1/5 419/1/5
f 421/1/5 418/1/5 417/1/5
f 422/1/5 418/1/5 421/1/5
f 423/1/5 416/1/5 415/1/5
f 424/1/5 416/1/5 423/1/5
f 433/1/5 426/1/5 425/1/5
f 434/1/5 426/1/5 433/1/5
f 435/1/5 428/1/5 427/1/5
f 436/1/5 428/1/5 435/1/5
f 437/1/5 430/1/5 429/1/5
f 438/1/5 430/1/5 437/1/5
f 439/1/5 432/1/5 431/1/5
f 440/1/5 432/1/5 439/1/5
f 449/1/5 442/1/5 441/1/5
f 450/1/5 442/1/5 449/1/5
f 451/1/5 444/1/5 443/1/5
f 452/1/5 444/1/5 451/1/5
f 453/1/5 446/1/5 445/1/5
f 454/1/5 446/1/5 453/1/5
f 455/1/5 448/1/5 447/1/5
f 456/1/5 448/1/5 455/1/5
f 465/1/5 458/1/5 457/1/5
f 466/1/5 458/1/5 465/1/5
f 467/1/5 460/1/5 459/1/5
f 468/1/5 460/1/5 467/1/5
f 469/1/5 462/1/5 461/1/5
f 470/1/5 462/1/5 469/1/5
f 471/1/5 464/1/5 463/1/5
f 472/1/5 464/1/5 471/1/5
f 479/1/5 474/1/5 473/1/5
f 480/1/5 474/1/5 479/1/5
f 481/1/5 476/1/5 475/1/5
f 482/1/5 476/1/5 481/1/5
f 483/1/5 478/1/5 477/1/5
f 484/1/5 478/1/5 483/1/5
f 487/2/5 486/2/5 485/2/5
f 488/2/5 486/2/5 487/2/5
f 489/2/5 486/2/5 488/2/5
f 490/2/5 486/2/5 489/2/5
f 495/2/5 492/2/5 491/2/5
f 496/2/5 492/2/5 495/2/5
f 497/2/5 494/2/5 493/2/5
f 498/2/5 494/2/5 497/2/5
f 503/2/5 500/2/5 499/2/5
f 504/2/5 500/2/5 503/2/5
f 505/2/5 502/2/5 501/2/5
f 506/2/5 502/2/5 505/2/5
f 511/2/5 508/2/5 507/2/5
f 511/2/5 510/2/5 509/2/5
f 511/2/5 509/2/5 508/2/5
f 512/2/5 510/2/5 511/2/5
f 513/2/6 514/2/6 515/2/6
f 515/2/6 514/2/6 516/2/6
f 513/2/6 515/2/6 517/2/6
f 516/2/6 514/2/6 518/2/6
f 513/2/6 517/2/6 519/2/6
f 517/2/6 518/2/6 519/2/6
f 518/2/6 514/2/6 520/2/6
f 519/2/6 518/2/6 520/2/6
f 521/1/6 522/1/6 525/1/6
f 525/1/6 522/1/6 526/1/6
f 523/1/6 524/1/6 527/1/6
f 527/1/6 524/1/6 528/1/6
f 529/1/6 530/1/6 533/1/6
f 533/1/6 530/1/6 534/1/6
f 531/1/6 532/1/6 535/1/6
f 535/1/6 532/1/6 536/1/6
f 537/1/6 538/1/6 541/1/6
f 541/1/6 538/1/6 542/1/6
f 539/1/6 540/1/6 543/1/6
f 543/1/6 540/1/6 544/1/6
f 545/1/6 546/1/6 549/1/6
f 549/1/6 546/1/6 550/1/6
f 547/1/6 548/1/6 551/1/6
f 551/1/6 548/1/6 552/1/6
f 553/1/6 554/1/6 555/1/6
f 555/1/6 554/1/6 556/1/6
f 556/1/6 554/1/6 557/1/6
f 557/1/6 554/1/6 558/1/6
f 561/2/6 562/2/6 565/2/6
f 565/2/6 562/2/6 566/2/6
f 559/1/6 560/1/6 567/1/6
f 567/1/6 560/1/6 568/1/6
f 563/1/6 564/1/6 569/1/6
f 569/1/6 564/1/6 570/1/6
f 571/1/6 572/1/6 575/1/6
f 575/1/6 572/1/6 576/1/6
f 573/1/6 574/1/6 577/1/6
f 577/1/6 574/1/6 578/1/6
f 561/2/6 565/2/6 583/2/6
f 566/2/6 562/2/6 584/2/6
f 579/1/6 580/1/6 585/1/6
f 585/1/6 580/1/6 586/1/6
f 561/2/6 583/2/6 587/2/6
f 583/2/6 584/2/6 587/2/6
f 584/2/6 562/2/6 588/2/6
f 587/2/6 584/2/6 588/2/6
f 581/1/6 582/1/6 589/1/6
f 589/1/6 582/1/6 590/1/6
f 591/1/6 592/1/6 595/1/6
f 593/1/6 594/1/6 595/1/6
f 592/1/6 593/1/6 595/1/6
f 595/1/6 594/1/6 596/1/6
f 597/2/6 598/2/6 599/2/6
f 599/2/6 598/2/6 600/2/6
f 597/2/6 599/2/6 601/2/6
f 600/2/6 598/2/6 602/2/6
f 597/2/6 601/2/6 603/2/6
f 601/2/6 602/2/6 603/2/6
f 602/2/6 598/2/6 604/2/6
f 603/2/6 602/2/6 604/2/6
f 605/1/6 606/1/6 607/1/6
f 607/1/6 606/1/6 608/1/6
