# MagicaVoxel @ Ephtracy

# group
o 

# material
mtllib CASA DO BURI-20.mtl
usemtl palette

# normals
vn -1 0 0
vn 1 0 0
vn 0 0 1
vn 0 0 -1
vn 0 -1 0
vn 0 1 0

# texcoords
vt 0.345703 0.5
vt 0.376953 0.5
vt 0.408203 0.5
vt 0.412109 0.5

# verts
v 4.1 7.8 4.1
v 4.1 7.8 4
v 4.1 7.8 3.8
v 4.1 7.8 3.6
v 4.1 7.8 3.4
v 4.1 7.8 2.8
v 4.1 7.8 2.6
v 4.1 7.8 2.4
v 4.1 7.8 2.2
v 4.1 8 4.1
v 4.1 8 4
v 4.1 8 3.8
v 4.1 8 3.6
v 4.1 8 3.4
v 4.1 8 2.8
v 4.1 8 2.6
v 4.1 8 2.4
v 4.1 8 2.2
v 4.2 6.5 4
v 4.2 6.5 3.8
v 4.2 6.5 2.5
v 4.2 6.5 2.3
v 4.2 7.8 4
v 4.2 7.8 3.8
v 4.2 7.8 2.5
v 4.2 7.8 2.4
v 4.2 7.8 2.3
v 6.4 6.5 4
v 6.4 6.5 3.8
v 6.4 6.5 2.5
v 6.4 6.5 2.3
v 6.4 7.8 4
v 6.4 7.8 2.3
v 6.4 7.9 4
v 6.4 7.9 3.8
v 6.4 7.9 2.5
v 6.4 7.9 2.4
v 6.4 7.9 2.3
v 6.6 7.8 3.8
v 6.6 7.8 3
v 6.6 7.8 2.8
v 6.6 7.8 2.5
v 6.6 7.9 3.8
v 6.6 7.9 3.6
v 6.6 7.9 3.4
v 6.6 7.9 3
v 6.6 7.9 2.8
v 6.6 7.9 2.5
v 4.2 7.8 3.8
v 4.2 7.8 3.6
v 4.2 7.8 3.4
v 4.2 7.8 2.8
v 4.2 7.8 2.6
v 4.2 7.8 2.5
v 4.2 7.9 3.8
v 4.2 7.9 3.6
v 4.2 7.9 3.4
v 4.2 7.9 2.8
v 4.2 7.9 2.6
v 4.2 7.9 2.5
v 4.4 6.5 4
v 4.4 6.5 3.8
v 4.4 6.5 2.5
v 4.4 6.5 2.3
v 4.4 7.8 4
v 4.4 7.8 2.3
v 4.4 7.9 4
v 4.4 7.9 3.8
v 4.4 7.9 2.5
v 4.4 7.9 2.4
v 4.4 7.9 2.3
v 6.6 6.5 4
v 6.6 6.5 3.8
v 6.6 6.5 2.5
v 6.6 6.5 2.3
v 6.6 7.8 4
v 6.6 7.8 3.8
v 6.6 7.8 2.5
v 6.6 7.8 2.4
v 6.6 7.8 2.3
v 6.7 7.8 4.1
v 6.7 7.8 4
v 6.7 7.8 3.8
v 6.7 7.8 3
v 6.7 7.8 2.8
v 6.7 7.8 2.4
v 6.7 7.8 2.2
v 6.7 8 4.1
v 6.7 8 4
v 6.7 8 3.8
v 6.7 8 3
v 6.7 8 2.8
v 6.7 8 2.4
v 6.7 8 2.2
v 4.1 7.8 4.1
v 4.1 8 4.1
v 5.5 7.8 4.1
v 5.5 8 4.1
v 6.7 7.8 4.1
v 6.7 8 4.1
v 4.2 6.5 4
v 4.2 7.8 4
v 4.4 6.5 4
v 4.4 7.8 4
v 6.4 6.5 4
v 6.4 7.8 4
v 6.6 6.5 4
v 6.6 7.8 4
v 4.2 6.5 2.5
v 4.2 7.8 2.5
v 4.2 7.9 2.5
v 4.4 6.5 2.5
v 4.4 7.9 2.5
v 6.4 6.5 2.5
v 6.4 7.9 2.5
v 6.6 6.5 2.5
v 6.6 7.8 2.5
v 6.6 7.9 2.5
v 4.4 7.8 2.3
v 4.4 7.9 2.3
v 4.8 7.8 2.3
v 4.8 7.9 2.3
v 5.6 7.8 2.3
v 5.6 7.9 2.3
v 6.4 7.8 2.3
v 6.4 7.9 2.3
v 4.4 7.8 4
v 4.4 7.9 4
v 5.1 7.9 4
v 5.5 7.8 4
v 5.5 7.9 4
v 6.4 7.8 4
v 6.4 7.9 4
v 4.2 6.5 3.8
v 4.2 7.8 3.8
v 4.2 7.9 3.8
v 4.4 6.5 3.8
v 4.4 7.9 3.8
v 6.4 6.5 3.8
v 6.4 7.9 3.8
v 6.6 6.5 3.8
v 6.6 7.8 3.8
v 6.6 7.9 3.8
v 4.2 6.5 2.3
v 4.2 7.8 2.3
v 4.4 6.5 2.3
v 4.4 7.8 2.3
v 6.4 6.5 2.3
v 6.4 7.8 2.3
v 6.6 6.5 2.3
v 6.6 7.8 2.3
v 4.1 7.8 2.2
v 4.1 8 2.2
v 4.8 7.8 2.2
v 4.8 8 2.2
v 5.6 7.8 2.2
v 5.6 8 2.2
v 6.7 7.8 2.2
v 6.7 8 2.2
v 4.2 6.5 4
v 4.4 6.5 4
v 6.4 6.5 4
v 6.6 6.5 4
v 4.2 6.5 3.8
v 4.4 6.5 3.8
v 6.4 6.5 3.8
v 6.6 6.5 3.8
v 4.2 6.5 2.5
v 4.4 6.5 2.5
v 6.4 6.5 2.5
v 6.6 6.5 2.5
v 4.2 6.5 2.3
v 4.4 6.5 2.3
v 6.4 6.5 2.3
v 6.6 6.5 2.3
v 4.1 7.8 4.1
v 5.5 7.8 4.1
v 6.7 7.8 4.1
v 4.1 7.8 4
v 4.2 7.8 4
v 4.4 7.8 4
v 5.5 7.8 4
v 6.4 7.8 4
v 6.6 7.8 4
v 6.7 7.8 4
v 4.1 7.8 3.8
v 4.2 7.8 3.8
v 6.6 7.8 3.8
v 6.7 7.8 3.8
v 4.1 7.8 3.6
v 4.2 7.8 3.6
v 4.1 7.8 3.4
v 4.2 7.8 3.4
v 6.6 7.8 3
v 6.7 7.8 3
v 4.1 7.8 2.8
v 4.2 7.8 2.8
v 6.6 7.8 2.8
v 6.7 7.8 2.8
v 4.1 7.8 2.6
v 4.2 7.8 2.6
v 4.2 7.8 2.5
v 6.6 7.8 2.5
v 4.1 7.8 2.4
v 4.2 7.8 2.4
v 6.6 7.8 2.4
v 6.7 7.8 2.4
v 4.2 7.8 2.3
v 4.4 7.8 2.3
v 4.8 7.8 2.3
v 5.6 7.8 2.3
v 6.4 7.8 2.3
v 6.6 7.8 2.3
v 4.1 7.8 2.2
v 4.8 7.8 2.2
v 5.6 7.8 2.2
v 6.7 7.8 2.2
v 4.4 7.9 4
v 5.1 7.9 4
v 5.5 7.9 4
v 6.4 7.9 4
v 4.2 7.9 3.8
v 4.4 7.9 3.8
v 5.1 7.9 3.8
v 5.6 7.9 3.8
v 6.4 7.9 3.8
v 6.6 7.9 3.8
v 4.2 7.9 3.6
v 4.7 7.9 3.6
v 5.4 7.9 3.6
v 5.6 7.9 3.6
v 6.6 7.9 3.6
v 4.2 7.9 3.4
v 4.7 7.9 3.4
v 4.9 7.9 3.4
v 5.4 7.9 3.4
v 6.3 7.9 3.4
v 6.6 7.9 3.4
v 4.4 7.9 3.2
v 4.9 7.9 3.2
v 5.4 7.9 3.2
v 6.1 7.9 3.2
v 6.3 7.9 3.2
v 4.4 7.9 3
v 5.4 7.9 3
v 5.6 7.9 3
v 6.1 7.9 3
v 6.6 7.9 3
v 4.2 7.9 2.8
v 5.3 7.9 2.8
v 5.6 7.9 2.8
v 6.4 7.9 2.8
v 6.6 7.9 2.8
v 4.2 7.9 2.6
v 4.8 7.9 2.6
v 5.3 7.9 2.6
v 5.6 7.9 2.6
v 6.4 7.9 2.6
v 4.2 7.9 2.5
v 4.4 7.9 2.5
v 6.4 7.9 2.5
v 6.6 7.9 2.5
v 4.4 7.9 2.4
v 4.8 7.9 2.4
v 5.6 7.9 2.4
v 6.4 7.9 2.4
v 4.4 7.9 2.3
v 4.8 7.9 2.3
v 5.6 7.9 2.3
v 6.4 7.9 2.3
v 4.1 8 4.1
v 5.5 8 4.1
v 6.7 8 4.1
v 4.1 8 4
v 5.1 8 4
v 5.5 8 4
v 6.7 8 4
v 4.1 8 3.8
v 5.1 8 3.8
v 5.6 8 3.8
v 6.7 8 3.8
v 4.1 8 3.6
v 4.7 8 3.6
v 5.4 8 3.6
v 5.6 8 3.6
v 6.6 8 3.6
v 4.1 8 3.4
v 4.7 8 3.4
v 4.9 8 3.4
v 5.4 8 3.4
v 6.3 8 3.4
v 6.6 8 3.4
v 4.4 8 3.2
v 4.9 8 3.2
v 5.4 8 3.2
v 6.1 8 3.2
v 6.3 8 3.2
v 4.4 8 3
v 5.4 8 3
v 5.6 8 3
v 6.1 8 3
v 6.7 8 3
v 4.1 8 2.8
v 5.3 8 2.8
v 5.6 8 2.8
v 6.4 8 2.8
v 6.7 8 2.8
v 4.1 8 2.6
v 4.8 8 2.6
v 5.3 8 2.6
v 5.6 8 2.6
v 6.4 8 2.6
v 4.1 8 2.4
v 4.8 8 2.4
v 5.6 8 2.4
v 6.7 8 2.4
v 4.1 8 2.2
v 4.8 8 2.2
v 5.6 8 2.2
v 6.7 8 2.2

# faces
f 10/4/1 2/4/1 1/4/1
f 11/1/1 3/1/1 2/1/1
f 11/4/1 2/4/1 10/4/1
f 12/3/1 4/3/1 3/3/1
f 12/1/1 3/1/1 11/1/1
f 13/4/1 5/4/1 4/4/1
f 13/3/1 4/3/1 12/3/1
f 14/1/1 6/1/1 5/1/1
f 14/4/1 5/4/1 13/4/1
f 15/4/1 7/4/1 6/4/1
f 15/1/1 6/1/1 14/1/1
f 16/1/1 8/1/1 7/1/1
f 16/4/1 7/4/1 15/4/1
f 17/3/1 9/3/1 8/3/1
f 17/1/1 8/1/1 16/1/1
f 18/3/1 9/3/1 17/3/1
f 23/1/1 20/1/1 19/1/1
f 24/1/1 20/1/1 23/1/1
f 25/1/1 22/1/1 21/1/1
f 26/1/1 22/1/1 25/1/1
f 27/1/1 22/1/1 26/1/1
f 32/1/1 29/1/1 28/1/1
f 33/1/1 31/1/1 30/1/1
f 34/1/1 29/1/1 32/1/1
f 35/1/1 29/1/1 34/1/1
f 36/1/1 33/1/1 30/1/1
f 37/1/1 33/1/1 36/1/1
f 38/1/1 33/1/1 37/1/1
f 43/1/1 40/1/1 39/1/1
f 44/1/1 40/1/1 43/1/1
f 45/1/1 40/1/1 44/1/1
f 46/3/1 41/3/1 40/3/1
f 46/1/1 40/1/1 45/1/1
f 47/1/1 42/1/1 41/1/1
f 47/3/1 41/3/1 46/3/1
f 48/1/1 42/1/1 47/1/1
f 49/3/2 50/3/2 55/3/2
f 50/4/2 51/4/2 56/4/2
f 55/3/2 50/3/2 56/3/2
f 51/1/2 52/1/2 57/1/2
f 56/4/2 51/4/2 57/4/2
f 52/4/2 53/4/2 58/4/2
f 57/1/2 52/1/2 58/1/2
f 53/1/2 54/1/2 59/1/2
f 58/4/2 53/4/2 59/4/2
f 59/1/2 54/1/2 60/1/2
f 61/1/2 62/1/2 65/1/2
f 63/1/2 64/1/2 66/1/2
f 65/1/2 62/1/2 67/1/2
f 67/1/2 62/1/2 68/1/2
f 63/1/2 66/1/2 69/1/2
f 69/1/2 66/1/2 70/1/2
f 70/1/2 66/1/2 71/1/2
f 72/1/2 73/1/2 76/1/2
f 76/1/2 73/1/2 77/1/2
f 74/1/2 75/1/2 78/1/2
f 78/1/2 75/1/2 79/1/2
f 79/1/2 75/1/2 80/1/2
f 81/1/2 82/1/2 88/1/2
f 82/2/2 83/2/2 89/2/2
f 88/1/2 82/1/2 89/1/2
f 83/1/2 84/1/2 90/1/2
f 89/2/2 83/2/2 90/2/2
f 84/3/2 85/3/2 91/3/2
f 90/1/2 84/1/2 91/1/2
f 85/1/2 86/1/2 92/1/2
f 91/3/2 85/3/2 92/3/2
f 86/2/2 87/2/2 93/2/2
f 92/1/2 86/1/2 93/1/2
f 93/2/2 87/2/2 94/2/2
f 97/4/3 96/4/3 95/4/3
f 98/4/3 96/4/3 97/4/3
f 99/1/3 98/1/3 97/1/3
f 100/1/3 98/1/3 99/1/3
f 103/1/3 102/1/3 101/1/3
f 104/1/3 102/1/3 103/1/3
f 107/1/3 106/1/3 105/1/3
f 108/1/3 106/1/3 107/1/3
f 112/1/3 110/1/3 109/1/3
f 112/1/3 111/1/3 110/1/3
f 113/1/3 111/1/3 112/1/3
f 116/1/3 115/1/3 114/1/3
f 117/1/3 115/1/3 116/1/3
f 118/1/3 115/1/3 117/1/3
f 121/3/3 120/3/3 119/3/3
f 122/3/3 120/3/3 121/3/3
f 123/1/3 122/1/3 121/1/3
f 124/1/3 122/1/3 123/1/3
f 125/2/3 124/2/3 123/2/3
f 126/2/3 124/2/3 125/2/3
f 127/4/4 128/4/4 129/4/4
f 127/4/4 129/4/4 130/4/4
f 130/4/4 129/4/4 131/4/4
f 130/1/4 131/1/4 132/1/4
f 132/1/4 131/1/4 133/1/4
f 134/1/4 135/1/4 137/1/4
f 135/1/4 136/1/4 137/1/4
f 137/1/4 136/1/4 138/1/4
f 139/1/4 140/1/4 141/1/4
f 141/1/4 140/1/4 142/1/4
f 142/1/4 140/1/4 143/1/4
f 144/1/4 145/1/4 146/1/4
f 146/1/4 145/1/4 147/1/4
f 148/1/4 149/1/4 150/1/4
f 150/1/4 149/1/4 151/1/4
f 152/3/4 153/3/4 154/3/4
f 154/3/4 153/3/4 155/3/4
f 154/1/4 155/1/4 156/1/4
f 156/1/4 155/1/4 157/1/4
f 156/2/4 157/2/4 158/2/4
f 158/2/4 157/2/4 159/2/4
f 164/1/5 161/1/5 160/1/5
f 165/1/5 161/1/5 164/1/5
f 166/1/5 163/1/5 162/1/5
f 167/1/5 163/1/5 166/1/5
f 172/1/5 169/1/5 168/1/5
f 173/1/5 169/1/5 172/1/5
f 174/1/5 171/1/5 170/1/5
f 175/1/5 171/1/5 174/1/5
f 179/4/5 177/4/5 176/4/5
f 180/4/5 177/4/5 179/4/5
f 181/4/5 177/4/5 180/4/5
f 182/1/5 178/1/5 177/1/5
f 182/4/5 177/4/5 181/4/5
f 183/1/5 178/1/5 182/1/5
f 184/1/5 178/1/5 183/1/5
f 185/1/5 178/1/5 184/1/5
f 186/1/5 180/1/5 179/1/5
f 187/1/5 180/1/5 186/1/5
f 188/2/5 185/2/5 184/2/5
f 189/2/5 185/2/5 188/2/5
f 190/3/5 187/3/5 186/3/5
f 191/3/5 187/3/5 190/3/5
f 192/4/5 191/4/5 190/4/5
f 193/4/5 191/4/5 192/4/5
f 194/1/5 189/1/5 188/1/5
f 195/1/5 189/1/5 194/1/5
f 196/1/5 193/1/5 192/1/5
f 197/1/5 193/1/5 196/1/5
f 198/3/5 195/3/5 194/3/5
f 199/3/5 195/3/5 198/3/5
f 200/4/5 197/4/5 196/4/5
f 201/4/5 197/4/5 200/4/5
f 202/1/5 201/1/5 200/1/5
f 203/1/5 199/1/5 198/1/5
f 204/1/5 202/1/5 200/1/5
f 205/1/5 202/1/5 204/1/5
f 206/1/5 199/1/5 203/1/5
f 207/1/5 199/1/5 206/1/5
f 208/3/5 205/3/5 204/3/5
f 213/2/5 207/2/5 206/2/5
f 214/3/5 208/3/5 204/3/5
f 214/3/5 209/3/5 208/3/5
f 214/3/5 210/3/5 209/3/5
f 215/1/5 211/1/5 210/1/5
f 215/3/5 210/3/5 214/3/5
f 216/2/5 212/2/5 211/2/5
f 216/1/5 211/1/5 215/1/5
f 216/2/5 213/2/5 212/2/5
f 217/2/5 207/2/5 213/2/5
f 217/2/5 213/2/5 216/2/5
f 223/1/5 219/1/5 218/1/5
f 224/2/5 221/2/5 220/2/5
f 224/2/5 220/2/5 219/2/5
f 224/1/5 219/1/5 223/1/5
f 225/2/5 221/2/5 224/2/5
f 226/2/5 221/2/5 225/2/5
f 228/3/5 223/3/5 222/3/5
f 228/3/5 224/3/5 223/3/5
f 228/3/5 225/3/5 224/3/5
f 229/3/5 225/3/5 228/3/5
f 230/3/5 225/3/5 229/3/5
f 231/1/5 227/1/5 226/1/5
f 231/3/5 225/3/5 230/3/5
f 231/1/5 226/1/5 225/1/5
f 232/1/5 227/1/5 231/1/5
f 233/4/5 229/4/5 228/4/5
f 234/1/5 230/1/5 229/1/5
f 234/4/5 229/4/5 233/4/5
f 235/1/5 230/1/5 234/1/5
f 236/2/5 231/2/5 230/2/5
f 236/1/5 230/1/5 235/1/5
f 236/2/5 232/2/5 231/2/5
f 237/2/5 232/2/5 236/2/5
f 238/2/5 232/2/5 237/2/5
f 239/1/5 235/1/5 234/1/5
f 239/1/5 234/1/5 233/1/5
f 240/3/5 236/3/5 235/3/5
f 240/1/5 235/1/5 239/1/5
f 240/3/5 237/3/5 236/3/5
f 241/3/5 237/3/5 240/3/5
f 242/3/5 237/3/5 241/3/5
f 243/1/5 238/1/5 237/1/5
f 243/3/5 237/3/5 242/3/5
f 244/1/5 239/1/5 233/1/5
f 244/2/5 240/2/5 239/2/5
f 244/2/5 241/2/5 240/2/5
f 245/4/5 242/4/5 241/4/5
f 245/2/5 241/2/5 244/2/5
f 246/4/5 242/4/5 245/4/5
f 247/1/5 243/1/5 242/1/5
f 247/4/5 242/4/5 246/4/5
f 248/1/5 238/1/5 243/1/5
f 248/1/5 243/1/5 247/1/5
f 249/1/5 244/1/5 233/1/5
f 249/1/5 246/1/5 245/1/5
f 249/1/5 245/1/5 244/1/5
f 250/1/5 246/1/5 249/1/5
f 251/3/5 247/3/5 246/3/5
f 251/1/5 246/1/5 250/1/5
f 251/3/5 248/3/5 247/3/5
f 252/3/5 248/3/5 251/3/5
f 253/3/5 248/3/5 252/3/5
f 254/4/5 250/4/5 249/4/5
f 255/4/5 250/4/5 254/4/5
f 256/2/5 251/2/5 250/2/5
f 256/4/5 250/4/5 255/4/5
f 256/2/5 252/2/5 251/2/5
f 257/2/5 252/2/5 256/2/5
f 258/1/5 253/1/5 252/1/5
f 258/2/5 252/2/5 257/2/5
f 259/1/5 255/1/5 254/1/5
f 260/1/5 255/1/5 259/1/5
f 261/1/5 253/1/5 258/1/5
f 261/1/5 258/1/5 257/1/5
f 262/1/5 253/1/5 261/1/5
f 263/1/5 255/1/5 260/1/5
f 264/3/5 257/3/5 256/3/5
f 264/1/5 255/1/5 263/1/5
f 264/3/5 256/3/5 255/3/5
f 265/1/5 261/1/5 257/1/5
f 265/3/5 257/3/5 264/3/5
f 266/1/5 261/1/5 265/1/5
f 267/3/5 264/3/5 263/3/5
f 268/1/5 265/1/5 264/1/5
f 268/3/5 264/3/5 267/3/5
f 269/2/5 266/2/5 265/2/5
f 269/1/5 265/1/5 268/1/5
f 270/2/5 266/2/5 269/2/5
f 271/4/6 272/4/6 274/4/6
f 274/4/6 272/4/6 275/4/6
f 272/1/6 273/1/6 276/1/6
f 275/4/6 272/4/6 276/4/6
f 276/1/6 273/1/6 277/1/6
f 274/1/6 275/1/6 278/1/6
f 275/2/6 276/2/6 279/2/6
f 278/1/6 275/1/6 279/1/6
f 276/2/6 277/2/6 279/2/6
f 279/2/6 277/2/6 280/2/6
f 280/2/6 277/2/6 281/2/6
f 278/3/6 279/3/6 282/3/6
f 279/3/6 280/3/6 282/3/6
f 282/3/6 280/3/6 283/3/6
f 283/3/6 280/3/6 284/3/6
f 280/1/6 281/1/6 285/1/6
f 284/3/6 280/3/6 285/3/6
f 285/1/6 281/1/6 286/1/6
f 282/4/6 283/4/6 287/4/6
f 283/1/6 284/1/6 288/1/6
f 287/4/6 283/4/6 288/4/6
f 288/1/6 284/1/6 289/1/6
f 284/2/6 285/2/6 290/2/6
f 289/1/6 284/1/6 290/1/6
f 285/2/6 286/2/6 290/2/6
f 290/2/6 286/2/6 291/2/6
f 286/1/6 281/1/6 292/1/6
f 291/2/6 286/2/6 292/2/6
f 288/1/6 289/1/6 293/1/6
f 287/1/6 288/1/6 293/1/6
f 290/3/6 291/3/6 294/3/6
f 293/1/6 289/1/6 294/1/6
f 289/3/6 290/3/6 294/3/6
f 294/3/6 291/3/6 295/3/6
f 295/3/6 291/3/6 296/3/6
f 291/1/6 292/1/6 297/1/6
f 296/3/6 291/3/6 297/3/6
f 287/1/6 293/1/6 298/1/6
f 293/2/6 294/2/6 298/2/6
f 294/2/6 295/2/6 298/2/6
f 295/4/6 296/4/6 299/4/6
f 298/2/6 295/2/6 299/2/6
f 299/4/6 296/4/6 300/4/6
f 296/1/6 297/1/6 301/1/6
f 300/4/6 296/4/6 301/4/6
f 297/1/6 292/1/6 302/1/6
f 301/1/6 297/1/6 302/1/6
f 292/1/6 281/1/6 302/1/6
f 298/1/6 299/1/6 303/1/6
f 287/1/6 298/1/6 303/1/6
f 299/1/6 300/1/6 303/1/6
f 303/1/6 300/1/6 304/1/6
f 300/3/6 301/3/6 305/3/6
f 304/1/6 300/1/6 305/1/6
f 301/3/6 302/3/6 305/3/6
f 305/3/6 302/3/6 306/3/6
f 306/3/6 302/3/6 307/3/6
f 303/4/6 304/4/6 308/4/6
f 308/4/6 304/4/6 309/4/6
f 304/2/6 305/2/6 310/2/6
f 309/4/6 304/4/6 310/4/6
f 305/2/6 306/2/6 310/2/6
f 310/2/6 306/2/6 311/2/6
f 306/1/6 307/1/6 312/1/6
f 311/2/6 306/2/6 312/2/6
f 308/1/6 309/1/6 313/1/6
f 310/3/6 311/3/6 314/3/6
f 313/1/6 309/1/6 314/1/6
f 309/3/6 310/3/6 314/3/6
f 311/1/6 312/1/6 315/1/6
f 314/3/6 311/3/6 315/3/6
f 312/1/6 307/1/6 316/1/6
f 315/1/6 312/1/6 316/1/6
f 313/3/6 314/3/6 317/3/6
f 314/1/6 315/1/6 318/1/6
f 317/3/6 314/3/6 318/3/6
f 315/2/6 316/2/6 319/2/6
f 318/1/6 315/1/6 319/1/6
f 319/2/6 316/2/6 320/2/6
