# MagicaVoxel @ Ephtracy

# group
o 

# material
mtllib TV-0.mtl
usemtl palette

# normals
vn -1 0 0
vn 1 0 0
vn 0 0 1
vn 0 0 -1
vn 0 -1 0
vn 0 1 0

# texcoords
vt 0.345703 0.5
vt 0.376953 0.5
vt 0.408203 0.5
vt 0.412109 0.5

# verts
v -0.9 1 0.7
v -0.9 1 0.6
v -0.9 1 0.4
v -0.9 1 0.2
v -0.9 1 -0.6
v -0.9 1 -0.8
v -0.9 1.2 0.7
v -0.9 1.2 0.6
v -0.9 1.2 0.4
v -0.9 1.2 0.2
v -0.9 1.2 -0.6
v -0.9 1.2 -0.8
v -0.8 0 0.6
v -0.8 0 0.4
v -0.8 0 -0.5
v -0.8 0 -0.7
v -0.8 1 0.6
v -0.8 1 0.4
v -0.8 1 -0.5
v -0.8 1 -0.6
v -0.8 1 -0.7
v 0.7 0 0.6
v 0.7 0 0.4
v 0.7 0 -0.5
v 0.7 0 -0.7
v 0.7 1 0.6
v 0.7 1 -0.7
v 0.7 1.1 0.6
v 0.7 1.1 0.4
v 0.7 1.1 -0.5
v 0.7 1.1 -0.6
v 0.7 1.1 -0.7
v 0.9 1 0.4
v 0.9 1 -0.2
v 0.9 1 -0.4
v 0.9 1 -0.5
v 0.9 1.1 0.4
v 0.9 1.1 0.2
v 0.9 1.1 -0.2
v 0.9 1.1 -0.4
v 0.9 1.1 -0.5
v -0.8 1 0.4
v -0.8 1 0.2
v -0.8 1 -0.5
v -0.8 1.1 0.4
v -0.8 1.1 0.2
v -0.8 1.1 -0.5
v -0.6 0 0.6
v -0.6 0 0.4
v -0.6 0 -0.5
v -0.6 0 -0.7
v -0.6 1 0.6
v -0.6 1 -0.7
v -0.6 1.1 0.6
v -0.6 1.1 0.4
v -0.6 1.1 -0.5
v -0.6 1.1 -0.6
v -0.6 1.1 -0.7
v 0.9 0 0.6
v 0.9 0 0.4
v 0.9 0 -0.5
v 0.9 0 -0.7
v 0.9 1 0.6
v 0.9 1 0.4
v 0.9 1 -0.5
v 0.9 1 -0.6
v 0.9 1 -0.7
v 1 1 0.7
v 1 1 0.6
v 1 1 0.4
v 1 1 -0.2
v 1 1 -0.4
v 1 1 -0.6
v 1 1 -0.8
v 1 1.2 0.7
v 1 1.2 0.6
v 1 1.2 0.4
v 1 1.2 -0.2
v 1 1.2 -0.4
v 1 1.2 -0.6
v 1 1.2 -0.8
v -0.9 1 0.7
v -0.9 1.2 0.7
v 0.1 1 0.7
v 0.1 1.2 0.7
v 1 1 0.7
v 1 1.2 0.7
v -0.8 0 0.6
v -0.8 1 0.6
v -0.6 0 0.6
v -0.6 1 0.6
v 0.7 0 0.6
v 0.7 1 0.6
v 0.9 0 0.6
v 0.9 1 0.6
v -0.8 0 -0.5
v -0.8 1 -0.5
v -0.8 1.1 -0.5
v -0.6 0 -0.5
v -0.6 1.1 -0.5
v 0.7 0 -0.5
v 0.7 1.1 -0.5
v 0.9 0 -0.5
v 0.9 1 -0.5
v 0.9 1.1 -0.5
v -0.6 1 -0.7
v -0.6 1.1 -0.7
v 0.2 1 -0.7
v 0.2 1.1 -0.7
v 0.7 1 -0.7
v 0.7 1.1 -0.7
v -0.6 1 0.6
v -0.6 1.1 0.6
v -0.3 1.1 0.6
v 0.1 1 0.6
v 0.1 1.1 0.6
v 0.7 1 0.6
v 0.7 1.1 0.6
v -0.8 0 0.4
v -0.8 1 0.4
v -0.8 1.1 0.4
v -0.6 0 0.4
v -0.6 1.1 0.4
v 0.7 0 0.4
v 0.7 1.1 0.4
v 0.9 0 0.4
v 0.9 1 0.4
v 0.9 1.1 0.4
v -0.8 0 -0.7
v -0.8 1 -0.7
v -0.6 0 -0.7
v -0.6 1 -0.7
v 0.7 0 -0.7
v 0.7 1 -0.7
v 0.9 0 -0.7
v 0.9 1 -0.7
v -0.9 1 -0.8
v -0.9 1.2 -0.8
v -0.6 1 -0.8
v -0.6 1.2 -0.8
v 0.2 1 -0.8
v 0.2 1.2 -0.8
v 1 1 -0.8
v 1 1.2 -0.8
v -0.8 0 0.6
v -0.6 0 0.6
v 0.7 0 0.6
v 0.9 0 0.6
v -0.8 0 0.4
v -0.6 0 0.4
v 0.7 0 0.4
v 0.9 0 0.4
v -0.8 0 -0.5
v -0.6 0 -0.5
v 0.7 0 -0.5
v 0.9 0 -0.5
v -0.8 0 -0.7
v -0.6 0 -0.7
v 0.7 0 -0.7
v 0.9 0 -0.7
v -0.9 1 0.7
v 0.1 1 0.7
v 1 1 0.7
v -0.9 1 0.6
v -0.8 1 0.6
v -0.6 1 0.6
v 0.1 1 0.6
v 0.7 1 0.6
v 0.9 1 0.6
v 1 1 0.6
v -0.9 1 0.4
v -0.8 1 0.4
v 0.9 1 0.4
v 1 1 0.4
v -0.9 1 0.2
v -0.8 1 0.2
v 0.9 1 -0.2
v 1 1 -0.2
v 0.9 1 -0.4
v 1 1 -0.4
v -0.8 1 -0.5
v 0.9 1 -0.5
v -0.9 1 -0.6
v -0.8 1 -0.6
v 0.9 1 -0.6
v 1 1 -0.6
v -0.8 1 -0.7
v -0.6 1 -0.7
v 0.2 1 -0.7
v 0.7 1 -0.7
v 0.9 1 -0.7
v -0.9 1 -0.8
v -0.6 1 -0.8
v 0.2 1 -0.8
v 1 1 -0.8
v -0.6 1.1 0.6
v -0.3 1.1 0.6
v 0.1 1.1 0.6
v 0.7 1.1 0.6
v -0.8 1.1 0.4
v -0.6 1.1 0.4
v -0.3 1.1 0.4
v 0 1.1 0.4
v 0.7 1.1 0.4
v 0.9 1.1 0.4
v -0.8 1.1 0.2
v -0.6 1.1 0.2
v -0.5 1.1 0.2
v 0 1.1 0.2
v 0.7 1.1 0.2
v 0.9 1.1 0.2
v -0.6 1.1 0
v -0.5 1.1 0
v 0 1.1 0
v 0.7 1.1 0
v -0.6 1.1 -0.2
v 0 1.1 -0.2
v 0.2 1.1 -0.2
v 0.7 1.1 -0.2
v 0.9 1.1 -0.2
v -0.6 1.1 -0.4
v 0.2 1.1 -0.4
v 0.9 1.1 -0.4
v -0.8 1.1 -0.5
v -0.6 1.1 -0.5
v 0.7 1.1 -0.5
v 0.9 1.1 -0.5
v -0.6 1.1 -0.6
v 0.2 1.1 -0.6
v 0.7 1.1 -0.6
v -0.6 1.1 -0.7
v 0.2 1.1 -0.7
v 0.7 1.1 -0.7
v -0.9 1.2 0.7
v 0.1 1.2 0.7
v 1 1.2 0.7
v -0.9 1.2 0.6
v -0.3 1.2 0.6
v 0.1 1.2 0.6
v 1 1.2 0.6
v -0.9 1.2 0.4
v -0.6 1.2 0.4
v -0.3 1.2 0.4
v 0 1.2 0.4
v 0.9 1.2 0.4
v 1 1.2 0.4
v -0.9 1.2 0.2
v -0.6 1.2 0.2
v -0.5 1.2 0.2
v 0 1.2 0.2
v 0.7 1.2 0.2
v 0.9 1.2 0.2
v -0.6 1.2 0
v -0.5 1.2 0
v 0 1.2 0
v 0.7 1.2 0
v -0.6 1.2 -0.2
v 0 1.2 -0.2
v 0.2 1.2 -0.2
v 0.7 1.2 -0.2
v 1 1.2 -0.2
v -0.6 1.2 -0.4
v 0.2 1.2 -0.4
v 1 1.2 -0.4
v -0.9 1.2 -0.6
v -0.6 1.2 -0.6
v 0.2 1.2 -0.6
v 1 1.2 -0.6
v -0.9 1.2 -0.8
v -0.6 1.2 -0.8
v 0.2 1.2 -0.8
v 1 1.2 -0.8

# faces
f 7/4/1 2/4/1 1/4/1
f 8/1/1 3/1/1 2/1/1
f 8/4/1 2/4/1 7/4/1
f 9/4/1 4/4/1 3/4/1
f 9/1/1 3/1/1 8/1/1
f 10/1/1 5/1/1 4/1/1
f 10/4/1 4/4/1 9/4/1
f 11/3/1 6/3/1 5/3/1
f 11/1/1 5/1/1 10/1/1
f 12/3/1 6/3/1 11/3/1
f 17/1/1 14/1/1 13/1/1
f 18/1/1 14/1/1 17/1/1
f 19/1/1 16/1/1 15/1/1
f 20/1/1 16/1/1 19/1/1
f 21/1/1 16/1/1 20/1/1
f 26/1/1 23/1/1 22/1/1
f 27/1/1 25/1/1 24/1/1
f 28/1/1 23/1/1 26/1/1
f 29/1/1 23/1/1 28/1/1
f 30/1/1 27/1/1 24/1/1
f 31/1/1 27/1/1 30/1/1
f 32/1/1 27/1/1 31/1/1
f 37/1/1 34/1/1 33/1/1
f 38/1/1 34/1/1 37/1/1
f 39/3/1 35/3/1 34/3/1
f 39/1/1 34/1/1 38/1/1
f 40/1/1 36/1/1 35/1/1
f 40/3/1 35/3/1 39/3/1
f 41/1/1 36/1/1 40/1/1
f 42/4/2 43/4/2 45/4/2
f 43/1/2 44/1/2 46/1/2
f 45/4/2 43/4/2 46/4/2
f 46/1/2 44/1/2 47/1/2
f 48/1/2 49/1/2 52/1/2
f 50/1/2 51/1/2 53/1/2
f 52/1/2 49/1/2 54/1/2
f 54/1/2 49/1/2 55/1/2
f 50/1/2 53/1/2 56/1/2
f 56/1/2 53/1/2 57/1/2
f 57/1/2 53/1/2 58/1/2
f 59/1/2 60/1/2 63/1/2
f 63/1/2 60/1/2 64/1/2
f 61/1/2 62/1/2 65/1/2
f 65/1/2 62/1/2 66/1/2
f 66/1/2 62/1/2 67/1/2
f 68/1/2 69/1/2 75/1/2
f 69/2/2 70/2/2 76/2/2
f 75/1/2 69/1/2 76/1/2
f 70/1/2 71/1/2 77/1/2
f 76/2/2 70/2/2 77/2/2
f 71/3/2 72/3/2 78/3/2
f 77/1/2 71/1/2 78/1/2
f 72/1/2 73/1/2 79/1/2
f 78/3/2 72/3/2 79/3/2
f 73/2/2 74/2/2 80/2/2
f 79/1/2 73/1/2 80/1/2
f 80/2/2 74/2/2 81/2/2
f 84/4/3 83/4/3 82/4/3
f 85/4/3 83/4/3 84/4/3
f 86/1/3 85/1/3 84/1/3
f 87/1/3 85/1/3 86/1/3
f 90/1/3 89/1/3 88/1/3
f 91/1/3 89/1/3 90/1/3
f 94/1/3 93/1/3 92/1/3
f 95/1/3 93/1/3 94/1/3
f 99/1/3 97/1/3 96/1/3
f 99/1/3 98/1/3 97/1/3
f 100/1/3 98/1/3 99/1/3
f 103/1/3 102/1/3 101/1/3
f 104/1/3 102/1/3 103/1/3
f 105/1/3 102/1/3 104/1/3
f 108/1/3 107/1/3 106/1/3
f 109/1/3 107/1/3 108/1/3
f 110/2/3 109/2/3 108/2/3
f 111/2/3 109/2/3 110/2/3
f 112/4/4 113/4/4 114/4/4
f 112/4/4 114/4/4 115/4/4
f 115/4/4 114/4/4 116/4/4
f 115/1/4 116/1/4 117/1/4
f 117/1/4 116/1/4 118/1/4
f 119/1/4 120/1/4 122/1/4
f 120/1/4 121/1/4 122/1/4
f 122/1/4 121/1/4 123/1/4
f 124/1/4 125/1/4 126/1/4
f 126/1/4 125/1/4 127/1/4
f 127/1/4 125/1/4 128/1/4
f 129/1/4 130/1/4 131/1/4
f 131/1/4 130/1/4 132/1/4
f 133/1/4 134/1/4 135/1/4
f 135/1/4 134/1/4 136/1/4
f 137/3/4 138/3/4 139/3/4
f 139/3/4 138/3/4 140/3/4
f 139/1/4 140/1/4 141/1/4
f 141/1/4 140/1/4 142/1/4
f 141/2/4 142/2/4 143/2/4
f 143/2/4 142/2/4 144/2/4
f 149/1/5 146/1/5 145/1/5
f 150/1/5 146/1/5 149/1/5
f 151/1/5 148/1/5 147/1/5
f 152/1/5 148/1/5 151/1/5
f 157/1/5 154/1/5 153/1/5
f 158/1/5 154/1/5 157/1/5
f 159/1/5 156/1/5 155/1/5
f 160/1/5 156/1/5 159/1/5
f 164/4/5 162/4/5 161/4/5
f 165/4/5 162/4/5 164/4/5
f 166/4/5 162/4/5 165/4/5
f 167/1/5 163/1/5 162/1/5
f 167/4/5 162/4/5 166/4/5
f 168/1/5 163/1/5 167/1/5
f 169/1/5 163/1/5 168/1/5
f 170/1/5 163/1/5 169/1/5
f 171/1/5 165/1/5 164/1/5
f 172/1/5 165/1/5 171/1/5
f 173/2/5 170/2/5 169/2/5
f 174/2/5 170/2/5 173/2/5
f 175/4/5 172/4/5 171/4/5
f 176/4/5 172/4/5 175/4/5
f 177/1/5 174/1/5 173/1/5
f 178/1/5 174/1/5 177/1/5
f 179/3/5 178/3/5 177/3/5
f 180/3/5 178/3/5 179/3/5
f 181/1/5 176/1/5 175/1/5
f 182/1/5 180/1/5 179/1/5
f 183/1/5 181/1/5 175/1/5
f 184/1/5 181/1/5 183/1/5
f 185/1/5 180/1/5 182/1/5
f 186/1/5 180/1/5 185/1/5
f 187/3/5 184/3/5 183/3/5
f 191/2/5 186/2/5 185/2/5
f 192/3/5 187/3/5 183/3/5
f 192/3/5 188/3/5 187/3/5
f 193/1/5 189/1/5 188/1/5
f 193/3/5 188/3/5 192/3/5
f 194/2/5 190/2/5 189/2/5
f 194/1/5 189/1/5 193/1/5
f 194/2/5 191/2/5 190/2/5
f 195/2/5 186/2/5 191/2/5
f 195/2/5 191/2/5 194/2/5
f 201/1/5 197/1/5 196/1/5
f 202/2/5 199/2/5 198/2/5
f 202/2/5 198/2/5 197/2/5
f 202/1/5 197/1/5 201/1/5
f 203/2/5 199/2/5 202/2/5
f 204/2/5 199/2/5 203/2/5
f 206/4/5 201/4/5 200/4/5
f 207/1/5 202/1/5 201/1/5
f 207/4/5 201/4/5 206/4/5
f 207/1/5 203/1/5 202/1/5
f 208/1/5 203/1/5 207/1/5
f 209/2/5 205/2/5 204/2/5
f 209/1/5 203/1/5 208/1/5
f 209/2/5 204/2/5 203/2/5
f 210/2/5 205/2/5 209/2/5
f 211/2/5 205/2/5 210/2/5
f 212/1/5 208/1/5 207/1/5
f 212/1/5 207/1/5 206/1/5
f 213/3/5 209/3/5 208/3/5
f 213/1/5 208/1/5 212/1/5
f 213/3/5 210/3/5 209/3/5
f 214/3/5 210/3/5 213/3/5
f 215/1/5 211/1/5 210/1/5
f 215/3/5 210/3/5 214/3/5
f 216/2/5 214/2/5 213/2/5
f 216/1/5 212/1/5 206/1/5
f 216/2/5 213/2/5 212/2/5
f 217/4/5 215/4/5 214/4/5
f 217/2/5 214/2/5 216/2/5
f 218/4/5 215/4/5 217/4/5
f 219/1/5 211/1/5 215/1/5
f 219/4/5 215/4/5 218/4/5
f 220/1/5 211/1/5 219/1/5
f 221/1/5 218/1/5 217/1/5
f 221/1/5 216/1/5 206/1/5
f 221/1/5 217/1/5 216/1/5
f 222/3/5 220/3/5 219/3/5
f 222/1/5 218/1/5 221/1/5
f 222/3/5 219/3/5 218/3/5
f 223/3/5 220/3/5 222/3/5
f 224/1/5 221/1/5 206/1/5
f 225/3/5 222/3/5 221/3/5
f 225/1/5 221/1/5 224/1/5
f 226/1/5 223/1/5 222/1/5
f 227/1/5 223/1/5 226/1/5
f 228/3/5 222/3/5 225/3/5
f 229/1/5 226/1/5 222/1/5
f 229/3/5 222/3/5 228/3/5
f 230/1/5 226/1/5 229/1/5
f 231/1/5 229/1/5 228/1/5
f 232/2/5 230/2/5 229/2/5
f 232/1/5 229/1/5 231/1/5
f 233/2/5 230/2/5 232/2/5
f 234/4/6 235/4/6 237/4/6
f 237/4/6 235/4/6 238/4/6
f 235/1/6 236/1/6 239/1/6
f 238/4/6 235/4/6 239/4/6
f 239/1/6 236/1/6 240/1/6
f 237/1/6 238/1/6 241/1/6
f 241/1/6 238/1/6 242/1/6
f 238/2/6 239/2/6 243/2/6
f 242/1/6 238/1/6 243/1/6
f 239/2/6 240/2/6 243/2/6
f 243/2/6 240/2/6 244/2/6
f 244/2/6 240/2/6 245/2/6
f 245/2/6 240/2/6 246/2/6
f 241/4/6 242/4/6 247/4/6
f 242/1/6 243/1/6 248/1/6
f 247/4/6 242/4/6 248/4/6
f 243/1/6 244/1/6 248/1/6
f 248/1/6 244/1/6 249/1/6
f 244/2/6 245/2/6 250/2/6
f 249/1/6 244/1/6 250/1/6
f 250/2/6 245/2/6 251/2/6
f 245/1/6 246/1/6 252/1/6
f 251/2/6 245/2/6 252/2/6
f 248/1/6 249/1/6 253/1/6
f 247/1/6 248/1/6 253/1/6
f 250/3/6 251/3/6 254/3/6
f 253/1/6 249/1/6 254/1/6
f 249/3/6 250/3/6 254/3/6
f 254/3/6 251/3/6 255/3/6
f 251/1/6 252/1/6 256/1/6
f 255/3/6 251/3/6 256/3/6
f 247/1/6 253/1/6 257/1/6
f 254/2/6 255/2/6 257/2/6
f 253/2/6 254/2/6 257/2/6
f 255/4/6 256/4/6 258/4/6
f 257/2/6 255/2/6 258/2/6
f 258/4/6 256/4/6 259/4/6
f 256/1/6 252/1/6 260/1/6
f 259/4/6 256/4/6 260/4/6
f 252/1/6 246/1/6 261/1/6
f 260/1/6 252/1/6 261/1/6
f 258/1/6 259/1/6 262/1/6
f 247/1/6 257/1/6 262/1/6
f 257/1/6 258/1/6 262/1/6
f 259/3/6 260/3/6 263/3/6
f 262/1/6 259/1/6 263/1/6
f 260/3/6 261/3/6 263/3/6
f 263/3/6 261/3/6 264/3/6
f 247/1/6 262/1/6 265/1/6
f 262/3/6 263/3/6 266/3/6
f 265/1/6 262/1/6 266/1/6
f 263/1/6 264/1/6 267/1/6
f 266/3/6 263/3/6 267/3/6
f 267/1/6 264/1/6 268/1/6
f 265/3/6 266/3/6 269/3/6
f 266/1/6 267/1/6 270/1/6
f 269/3/6 266/3/6 270/3/6
f 267/2/6 268/2/6 271/2/6
f 270/1/6 267/1/6 271/1/6
f 271/2/6 268/2/6 272/2/6
