# MagicaVoxel @ Ephtracy

# group
o 

# material
mtllib TV-1.mtl
usemtl palette

# normals
vn -1 0 0
vn 1 0 0
vn 0 0 1
vn 0 0 -1
vn 0 -1 0
vn 0 1 0

# texcoords
vt 0.134766 0.5
vt 0.189453 0.5
vt 0.251953 0.5
vt 0.283203 0.5
vt 0.318359 0.5
vt 0.322266 0.5
vt 0.376953 0.5
vt 0.412109 0.5
vt 0.416016 0.5
vt 0.501953 0.5
vt 0.505859 0.5
vt 0.509766 0.5
vt 0.599609 0.5
vt 0.654297 0.5
vt 0.689453 0.5
vt 0.693359 0.5
vt 0.697266 0.5
vt 0.708984 0.5
vt 0.716797 0.5
vt 0.791016 0.5
vt 0.873047 0.5
vt 0.904297 0.5
vt 0.935547 0.5
vt 0.966797 0.5

# verts
v -0.6 1.2 0.4
v -0.6 1.2 -0.5
v -0.6 2.3 0.4
v -0.6 2.3 -0.5
v -0.2 2.6 0
v -0.2 2.6 -0.1
v -0.2 2.8 0
v -0.2 2.8 -0.1
v -0.1 2.5 0
v -0.1 2.5 -0.1
v -0.1 2.6 0
v -0.1 2.6 -0.1
v -5.96046e-08 2.3 0
v -5.96046e-08 2.3 -0.1
v -5.96046e-08 2.5 0
v -5.96046e-08 2.5 -0.1
v 0.1 2.6 0
v 0.1 2.6 -0.1
v 0.1 2.7 0
v 0.1 2.7 -0.1
v 0.2 2.7 0
v 0.2 2.7 -0.1
v 0.2 2.8 0
v 0.2 2.8 -0.1
v 0.6 1.4 0.4
v 0.6 1.4 0.3
v 0.6 1.5 0.3
v 0.6 2.2 0.4
v 0.6 2.2 0.3
v -0.5 1.4 0.4
v -0.5 1.4 0.3
v -0.5 1.5 0.3
v -0.5 1.6 0.3
v -0.5 2.1 0.3
v -0.5 2.2 0.4
v -0.5 2.2 0.3
v -0.1 2.7 0
v -0.1 2.7 -0.1
v -0.1 2.8 0
v -0.1 2.8 -0.1
v -5.96046e-08 2.6 0
v -5.96046e-08 2.6 -0.1
v -5.96046e-08 2.7 0
v -5.96046e-08 2.7 -0.1
v 0.1 2.3 0
v 0.1 2.3 -0.1
v 0.1 2.5 0
v 0.1 2.5 -0.1
v 0.2 2.5 0
v 0.2 2.5 -0.1
v 0.2 2.6 0
v 0.2 2.6 -0.1
v 0.3 2.6 0
v 0.3 2.6 -0.1
v 0.3 2.8 0
v 0.3 2.8 -0.1
v 0.7 1.2 0.4
v 0.7 1.2 -0.5
v 0.7 2.3 0.4
v 0.7 2.3 -0.5
v -0.6 1.2 0.4
v -0.6 2.3 0.4
v -0.5 1.4 0.4
v -0.5 2.2 0.4
v 0.6 1.4 0.4
v 0.6 2.2 0.4
v 0.7 1.2 0.4
v 0.7 2.3 0.4
v -0.5 1.4 0.3
v -0.5 1.5 0.3
v -0.5 1.6 0.3
v -0.5 2.1 0.3
v -0.5 2.2 0.3
v -0.4 1.4 0.3
v -0.4 1.5 0.3
v -0.4 1.6 0.3
v -0.4 2.1 0.3
v -0.4 2.2 0.3
v -0.3 1.4 0.3
v -0.3 1.5 0.3
v -0.3 2.1 0.3
v -0.3 2.2 0.3
v -0.2 1.4 0.3
v -0.2 1.5 0.3
v -0.2 1.7 0.3
v -0.2 1.8 0.3
v -0.2 1.9 0.3
v -0.2 2.2 0.3
v -0.1 1.4 0.3
v -0.1 1.5 0.3
v -0.1 1.6 0.3
v -0.1 1.7 0.3
v -0.1 1.8 0.3
v -0.1 1.9 0.3
v -0.1 2.2 0.3
v -5.96046e-08 1.4 0.3
v -5.96046e-08 1.5 0.3
v -5.96046e-08 1.6 0.3
v -5.96046e-08 1.7 0.3
v -5.96046e-08 1.8 0.3
v -5.96046e-08 1.9 0.3
v -5.96046e-08 2 0.3
v -5.96046e-08 2.1 0.3
v -5.96046e-08 2.2 0.3
v 0.1 1.4 0.3
v 0.1 1.5 0.3
v 0.1 1.6 0.3
v 0.1 1.7 0.3
v 0.1 1.8 0.3
v 0.1 1.9 0.3
v 0.1 2 0.3
v 0.1 2.1 0.3
v 0.1 2.2 0.3
v 0.2 1.4 0.3
v 0.2 1.5 0.3
v 0.2 1.6 0.3
v 0.2 1.7 0.3
v 0.2 1.8 0.3
v 0.2 1.9 0.3
v 0.2 2 0.3
v 0.2 2.1 0.3
v 0.2 2.2 0.3
v 0.3 1.4 0.3
v 0.3 1.5 0.3
v 0.3 1.6 0.3
v 0.3 1.7 0.3
v 0.3 1.8 0.3
v 0.3 1.9 0.3
v 0.3 2.2 0.3
v 0.4 2 0.3
v 0.4 2.2 0.3
v 0.5 1.7 0.3
v 0.5 2 0.3
v 0.6 1.4 0.3
v 0.6 1.5 0.3
v 0.6 2.2 0.3
v -0.2 2.6 0
v -0.2 2.8 0
v -0.1 2.5 0
v -0.1 2.6 0
v -0.1 2.7 0
v -0.1 2.8 0
v -5.96046e-08 2.3 0
v -5.96046e-08 2.5 0
v -5.96046e-08 2.6 0
v -5.96046e-08 2.7 0
v 0.1 2.3 0
v 0.1 2.5 0
v 0.1 2.6 0
v 0.1 2.7 0
v 0.2 2.5 0
v 0.2 2.6 0
v 0.2 2.7 0
v 0.2 2.8 0
v 0.3 2.6 0
v 0.3 2.8 0
v -0.2 2.6 -0.1
v -0.2 2.8 -0.1
v -0.1 2.5 -0.1
v -0.1 2.6 -0.1
v -0.1 2.7 -0.1
v -0.1 2.8 -0.1
v -5.96046e-08 2.3 -0.1
v -5.96046e-08 2.5 -0.1
v -5.96046e-08 2.6 -0.1
v -5.96046e-08 2.7 -0.1
v 0.1 2.3 -0.1
v 0.1 2.5 -0.1
v 0.1 2.6 -0.1
v 0.1 2.7 -0.1
v 0.2 2.5 -0.1
v 0.2 2.6 -0.1
v 0.2 2.7 -0.1
v 0.2 2.8 -0.1
v 0.3 2.6 -0.1
v 0.3 2.8 -0.1
v -0.6 1.2 -0.5
v -0.6 2.3 -0.5
v 0.7 1.2 -0.5
v 0.7 2.3 -0.5
v -0.6 1.2 0.4
v 0.7 1.2 0.4
v -0.6 1.2 -0.5
v 0.7 1.2 -0.5
v -0.5 2.2 0.4
v 0.6 2.2 0.4
v -0.5 2.2 0.3
v -0.4 2.2 0.3
v -0.3 2.2 0.3
v -0.2 2.2 0.3
v -0.1 2.2 0.3
v -5.96046e-08 2.2 0.3
v 0.1 2.2 0.3
v 0.2 2.2 0.3
v 0.3 2.2 0.3
v 0.4 2.2 0.3
v 0.6 2.2 0.3
v -0.1 2.5 0
v -5.96046e-08 2.5 0
v 0.1 2.5 0
v 0.2 2.5 0
v -0.1 2.5 -0.1
v -5.96046e-08 2.5 -0.1
v 0.1 2.5 -0.1
v 0.2 2.5 -0.1
v -0.2 2.6 0
v -0.1 2.6 0
v 0.2 2.6 0
v 0.3 2.6 0
v -0.2 2.6 -0.1
v -0.1 2.6 -0.1
v 0.2 2.6 -0.1
v 0.3 2.6 -0.1
v -0.5 1.4 0.4
v 0.6 1.4 0.4
v -0.5 1.4 0.3
v -0.4 1.4 0.3
v -0.3 1.4 0.3
v -0.2 1.4 0.3
v -0.1 1.4 0.3
v -5.96046e-08 1.4 0.3
v 0.1 1.4 0.3
v 0.2 1.4 0.3
v 0.3 1.4 0.3
v 0.6 1.4 0.3
v -0.6 2.3 0.4
v 0.7 2.3 0.4
v -5.96046e-08 2.3 0
v 0.1 2.3 0
v -5.96046e-08 2.3 -0.1
v 0.1 2.3 -0.1
v -0.6 2.3 -0.5
v 0.7 2.3 -0.5
v -5.96046e-08 2.6 0
v 0.1 2.6 0
v -5.96046e-08 2.6 -0.1
v 0.1 2.6 -0.1
v -0.1 2.7 0
v -5.96046e-08 2.7 0
v 0.1 2.7 0
v 0.2 2.7 0
v -0.1 2.7 -0.1
v -5.96046e-08 2.7 -0.1
v 0.1 2.7 -0.1
v 0.2 2.7 -0.1
v -0.2 2.8 0
v -0.1 2.8 0
v 0.2 2.8 0
v 0.3 2.8 0
v -0.2 2.8 -0.1
v -0.1 2.8 -0.1
v 0.2 2.8 -0.1
v 0.3 2.8 -0.1

# faces
f 3/21/1 2/21/1 1/21/1
f 4/21/1 2/21/1 3/21/1
f 7/14/1 6/14/1 5/14/1
f 8/14/1 6/14/1 7/14/1
f 11/14/1 10/14/1 9/14/1
f 12/14/1 10/14/1 11/14/1
f 15/14/1 14/14/1 13/14/1
f 16/14/1 14/14/1 15/14/1
f 19/14/1 18/14/1 17/14/1
f 20/14/1 18/14/1 19/14/1
f 23/14/1 22/14/1 21/14/1
f 24/14/1 22/14/1 23/14/1
f 27/21/1 26/21/1 25/21/1
f 28/21/1 27/21/1 25/21/1
f 29/21/1 27/21/1 28/21/1
f 30/21/2 31/21/2 32/21/2
f 30/21/2 32/21/2 33/21/2
f 30/21/2 33/21/2 34/21/2
f 30/21/2 34/21/2 35/21/2
f 35/21/2 34/21/2 36/21/2
f 37/14/2 38/14/2 39/14/2
f 39/14/2 38/14/2 40/14/2
f 41/14/2 42/14/2 43/14/2
f 43/14/2 42/14/2 44/14/2
f 45/14/2 46/14/2 47/14/2
f 47/14/2 46/14/2 48/14/2
f 49/14/2 50/14/2 51/14/2
f 51/14/2 50/14/2 52/14/2
f 53/14/2 54/14/2 55/14/2
f 55/14/2 54/14/2 56/14/2
f 57/21/2 58/21/2 59/21/2
f 59/21/2 58/21/2 60/21/2
f 63/21/3 62/21/3 61/21/3
f 64/21/3 62/21/3 63/21/3
f 65/21/3 63/21/3 61/21/3
f 66/21/3 62/21/3 64/21/3
f 67/21/3 65/21/3 61/21/3
f 67/21/3 66/21/3 65/21/3
f 68/21/3 62/21/3 66/21/3
f 68/21/3 66/21/3 67/21/3
f 74/18/3 70/18/3 69/18/3
f 75/10/3 71/10/3 70/10/3
f 75/18/3 70/18/3 74/18/3
f 76/15/3 72/15/3 71/15/3
f 76/10/3 71/10/3 75/10/3
f 77/10/3 73/10/3 72/10/3
f 77/15/3 72/15/3 76/15/3
f 78/10/3 73/10/3 77/10/3
f 79/7/3 75/7/3 74/7/3
f 80/10/3 76/10/3 75/10/3
f 80/7/3 75/7/3 79/7/3
f 80/10/3 77/10/3 76/10/3
f 81/15/3 78/15/3 77/15/3
f 81/10/3 77/10/3 80/10/3
f 82/15/3 78/15/3 81/15/3
f 83/6/3 80/6/3 79/6/3
f 84/22/3 81/22/3 80/22/3
f 84/6/3 80/6/3 83/6/3
f 84/22/3 82/22/3 81/22/3
f 85/22/3 82/22/3 84/22/3
f 86/22/3 82/22/3 85/22/3
f 87/22/3 82/22/3 86/22/3
f 88/22/3 82/22/3 87/22/3
f 89/16/3 84/16/3 83/16/3
f 90/8/3 85/8/3 84/8/3
f 90/16/3 84/16/3 89/16/3
f 91/8/3 85/8/3 90/8/3
f 92/12/3 86/12/3 85/12/3
f 92/8/3 85/8/3 91/8/3
f 93/17/3 87/17/3 86/17/3
f 93/12/3 86/12/3 92/12/3
f 94/1/3 88/1/3 87/1/3
f 94/17/3 87/17/3 93/17/3
f 95/1/3 88/1/3 94/1/3
f 96/18/3 91/18/3 90/18/3
f 96/18/3 90/18/3 89/18/3
f 97/18/3 91/18/3 96/18/3
f 98/15/3 92/15/3 91/15/3
f 98/18/3 91/18/3 97/18/3
f 99/9/3 93/9/3 92/9/3
f 99/15/3 92/15/3 98/15/3
f 100/20/3 95/20/3 94/20/3
f 100/9/3 93/9/3 99/9/3
f 100/20/3 94/20/3 93/20/3
f 101/20/3 95/20/3 100/20/3
f 102/20/3 95/20/3 101/20/3
f 103/20/3 95/20/3 102/20/3
f 104/20/3 95/20/3 103/20/3
f 105/14/3 97/14/3 96/14/3
f 106/3/3 98/3/3 97/3/3
f 106/14/3 97/14/3 105/14/3
f 107/2/3 99/2/3 98/2/3
f 107/3/3 98/3/3 106/3/3
f 107/2/3 100/2/3 99/2/3
f 108/2/3 100/2/3 107/2/3
f 109/19/3 101/19/3 100/19/3
f 109/2/3 100/2/3 108/2/3
f 110/18/3 102/18/3 101/18/3
f 110/19/3 101/19/3 109/19/3
f 111/9/3 103/9/3 102/9/3
f 111/18/3 102/18/3 110/18/3
f 112/24/3 104/24/3 103/24/3
f 112/9/3 103/9/3 111/9/3
f 113/24/3 104/24/3 112/24/3
f 114/3/3 106/3/3 105/3/3
f 114/3/3 108/3/3 107/3/3
f 114/3/3 107/3/3 106/3/3
f 115/3/3 108/3/3 114/3/3
f 116/3/3 108/3/3 115/3/3
f 117/16/3 109/16/3 108/16/3
f 117/3/3 108/3/3 116/3/3
f 118/11/3 110/11/3 109/11/3
f 118/16/3 109/16/3 117/16/3
f 119/17/3 111/17/3 110/17/3
f 119/11/3 110/11/3 118/11/3
f 120/12/3 112/12/3 111/12/3
f 120/17/3 111/17/3 119/17/3
f 121/9/3 113/9/3 112/9/3
f 121/12/3 112/12/3 120/12/3
f 122/9/3 113/9/3 121/9/3
f 123/14/3 115/14/3 114/14/3
f 124/3/3 116/3/3 115/3/3
f 124/14/3 115/14/3 123/14/3
f 125/4/3 117/4/3 116/4/3
f 125/3/3 116/3/3 124/3/3
f 126/3/3 118/3/3 117/3/3
f 126/4/3 117/4/3 125/4/3
f 127/5/3 119/5/3 118/5/3
f 127/3/3 118/3/3 126/3/3
f 128/23/3 120/23/3 119/23/3
f 128/5/3 119/5/3 127/5/3
f 128/23/3 121/23/3 120/23/3
f 128/23/3 122/23/3 121/23/3
f 129/23/3 122/23/3 128/23/3
f 130/12/3 127/12/3 126/12/3
f 130/12/3 128/12/3 127/12/3
f 130/12/3 129/12/3 128/12/3
f 131/12/3 129/12/3 130/12/3
f 132/22/3 125/22/3 124/22/3
f 132/22/3 126/22/3 125/22/3
f 132/12/3 130/12/3 126/12/3
f 133/22/3 131/22/3 130/22/3
f 133/12/3 130/12/3 132/12/3
f 134/13/3 124/13/3 123/13/3
f 135/22/3 132/22/3 124/22/3
f 135/13/3 124/13/3 134/13/3
f 135/22/3 133/22/3 132/22/3
f 136/22/3 131/22/3 133/22/3
f 136/22/3 133/22/3 135/22/3
f 140/14/3 138/14/3 137/14/3
f 141/14/3 138/14/3 140/14/3
f 142/14/3 138/14/3 141/14/3
f 144/14/3 140/14/3 139/14/3
f 144/14/3 141/14/3 140/14/3
f 145/14/3 141/14/3 144/14/3
f 146/14/3 141/14/3 145/14/3
f 147/14/3 144/14/3 143/14/3
f 147/14/3 145/14/3 144/14/3
f 148/14/3 145/14/3 147/14/3
f 149/14/3 145/14/3 148/14/3
f 151/14/3 150/14/3 149/14/3
f 151/14/3 149/14/3 148/14/3
f 152/14/3 150/14/3 151/14/3
f 153/14/3 150/14/3 152/14/3
f 155/14/3 153/14/3 152/14/3
f 155/14/3 154/14/3 153/14/3
f 156/14/3 154/14/3 155/14/3
f 157/14/4 158/14/4 160/14/4
f 160/14/4 158/14/4 161/14/4
f 161/14/4 158/14/4 162/14/4
f 159/14/4 160/14/4 164/14/4
f 160/14/4 161/14/4 164/14/4
f 164/14/4 161/14/4 165/14/4
f 165/14/4 161/14/4 166/14/4
f 163/14/4 164/14/4 167/14/4
f 164/14/4 165/14/4 167/14/4
f 167/14/4 165/14/4 168/14/4
f 168/14/4 165/14/4 169/14/4
f 169/14/4 170/14/4 171/14/4
f 168/14/4 169/14/4 171/14/4
f 171/14/4 170/14/4 172/14/4
f 172/14/4 170/14/4 173/14/4
f 172/14/4 173/14/4 175/14/4
f 173/14/4 174/14/4 175/14/4
f 175/14/4 174/14/4 176/14/4
f 177/21/4 178/21/4 179/21/4
f 179/21/4 178/21/4 180/21/4
f 183/21/5 182/21/5 181/21/5
f 184/21/5 182/21/5 183/21/5
f 187/21/5 186/21/5 185/21/5
f 188/21/5 186/21/5 187/21/5
f 189/21/5 186/21/5 188/21/5
f 190/21/5 186/21/5 189/21/5
f 191/21/5 186/21/5 190/21/5
f 192/21/5 186/21/5 191/21/5
f 193/21/5 186/21/5 192/21/5
f 194/21/5 186/21/5 193/21/5
f 195/21/5 186/21/5 194/21/5
f 196/21/5 186/21/5 195/21/5
f 197/21/5 186/21/5 196/21/5
f 202/14/5 199/14/5 198/14/5
f 203/14/5 199/14/5 202/14/5
f 204/14/5 201/14/5 200/14/5
f 205/14/5 201/14/5 204/14/5
f 210/14/5 207/14/5 206/14/5
f 211/14/5 207/14/5 210/14/5
f 212/14/5 209/14/5 208/14/5
f 213/14/5 209/14/5 212/14/5
f 214/21/6 215/21/6 216/21/6
f 216/21/6 215/21/6 217/21/6
f 217/21/6 215/21/6 218/21/6
f 218/21/6 215/21/6 219/21/6
f 219/21/6 215/21/6 220/21/6
f 220/21/6 215/21/6 221/21/6
f 221/21/6 215/21/6 222/21/6
f 222/21/6 215/21/6 223/21/6
f 223/21/6 215/21/6 224/21/6
f 224/21/6 215/21/6 225/21/6
f 226/21/6 227/21/6 228/21/6
f 228/21/6 227/21/6 229/21/6
f 226/21/6 228/21/6 230/21/6
f 229/21/6 227/21/6 231/21/6
f 226/21/6 230/21/6 232/21/6
f 230/21/6 231/21/6 232/21/6
f 231/21/6 227/21/6 233/21/6
f 232/21/6 231/21/6 233/21/6
f 234/14/6 235/14/6 236/14/6
f 236/14/6 235/14/6 237/14/6
f 238/14/6 239/14/6 242/14/6
f 242/14/6 239/14/6 243/14/6
f 240/14/6 241/14/6 244/14/6
f 244/14/6 241/14/6 245/14/6
f 246/14/6 247/14/6 250/14/6
f 250/14/6 247/14/6 251/14/6
f 248/14/6 249/14/6 252/14/6
f 252/14/6 249/14/6 253/14/6
